# Created by Kenney (www.kenney.nl)

mtllib Anvil.mtl

v 5 -1 2
v 4 -2 2
v 4 -1 2
v 5 -1 -2
v 4 -2 -2
v 4 -1 -2
v 3 -3 2
v 3 -2 2
v 3 -3 -2
v 3 -2 -2
v 3 -5 -2
v 3 -4 -2
v 3 -5 2
v 3 -4 2
v 4 -5 -2
v 4 -5 2
v -2 -2 -2
v -2 -3 -2
v -2 -2 2
v -2 -3 2
v -3 -2 2
v -3 -2 -2
v -2 -5 2
v -3 -5 2
v -2 -4 2
v -3 -5 -2
v -2 -5 -2
v -2 -4 -2
v -3 -1 -2
v -3 -1 2
v -4 -1 2
v -4 -1 -2
v -6 0 -1
v -6 -1 -1
v -6 0 1
v -6 -1 1
v -7 0 1
v -7 0 -1
v 7 -1 1.5
v 7 -1 -1.5
v 6 -1 1.5
v 6 -1 -1.5
v 6 0 -1.5
v 6 0 1.5
v 7 0 -1.5
v 7 0 1.5
v 6 -1 2
v 6 -1 -2
v -4 0 -2
v -4 0 2
v 6 0 -2
v 6 0 2
v -4 -1 1.5
v -4 -1 -1.5
v -5 -1 1.5
v -5 -1 -1.5
v -5 0 -1.5
v -5 0 1.5
v -4 0 -1.5
v -4 0 1.5
v -5 -1 1
v -5 -1 -1
v -5 0 -1
v -5 0 1
v 5 -7 2.5
v 5 -7 -2.5
v -4 -7 2.5
v -4 -7 -2.5
v -4 -5 -2.5
v -4 -5 2.5
v 5 -5 -2.5
v 5 -5 2.5

vn 0 0 1
vn 0.7071068 -0.7071068 0
vn 0 1 0
vn -1 0 0
vn 0 0 -1
vn 0.7071068 0.7071068 0
vn 0 -1 0
vn 1 0 0
vn -0.7071068 -0.7071068 0
vn -0.7071068 0.7071068 0

vt 0 0
vt NaN 0
vt NaN 0
vt NaN 0
vt NaN 0
vt NaN 0
vt NaN 0
vt NaN 0
vt NaN 0
vt NaN 0
vt NaN 0
vt NaN 0
vt NaN 0
vt NaN 0
vt NaN 0
vt NaN 0
vt NaN 0
vt NaN 0
vt NaN 0
vt 0 NaN
vt 0 NaN
vt 0 NaN
vt 0 NaN
vt 0 NaN
vt 0 NaN
vt 0 NaN
vt 0 NaN
vt NaN 0
vt NaN 0
vt NaN 0
vt NaN 0
vt NaN 0
vt NaN 0
vt NaN 0
vt NaN 0
vt NaN 0
vt 0 NaN
vt 0 NaN
vt 0 NaN
vt 0 NaN
vt 0 NaN
vt 0 NaN
vt 0 NaN
vt 0 NaN
vt 0 NaN
vt 0 NaN
vt 0 NaN
vt 0 NaN
vt 0 NaN
vt 0 NaN
vt 0 NaN
vt 0 NaN
vt 0 NaN
vt 0 NaN
vt 0 NaN
vt 0 NaN
vt 0 NaN
vt 0 NaN
vt 0 NaN
vt 0 NaN
vt 0 NaN
vt 0 NaN
vt 0 NaN
vt 0 NaN
vt 0 NaN
vt 0 NaN
vt 0 NaN
vt 0 NaN
vt 0 NaN
vt 0 NaN
vt 0 NaN
vt 0 NaN
vt 0 NaN
vt 0 NaN
vt 0 NaN
vt 0 NaN
vt 0 NaN
vt 0 NaN
vt 0 NaN
vt 0 NaN
vt 0 NaN
vt 0 NaN
vt 0 NaN
vt 0 NaN
vt 0 NaN
vt 0 NaN
vt 0 NaN
vt 0 NaN
vt 0 NaN
vt 0 NaN
vt 0 NaN
vt 0 NaN
vt 0 NaN
vt 0 NaN
vt 0 NaN
vt 0 NaN
vt 0 NaN
vt 0 NaN
vt 0 NaN
vt 0 NaN
vt 0 NaN
vt 0 NaN

usemtl color14

f 3/1/1 2/2/1 1/1/1
f 2/1/2 4/3/2 1/1/2
f 4/3/2 2/1/2 5/1/2
f 6/1/3 1/4/3 4/1/3
f 1/4/3 6/1/3 3/1/3
f 2/1/4 6/5/4 5/1/4
f 6/5/4 2/1/4 3/1/4
f 6/1/5 4/6/5 5/1/5
f 8/1/1 7/7/1 2/2/1
f 7/1/2 5/1/2 2/1/2
f 5/1/2 7/1/2 9/1/2
f 10/1/3 2/8/3 5/1/3
f 2/8/3 10/1/3 8/1/3
f 7/1/4 10/9/4 9/1/4
f 10/9/4 7/1/4 8/1/4
f 10/1/5 5/1/5 9/1/5
f 13/1/4 12/10/4 11/1/4
f 12/10/4 13/1/4 14/1/4
f 12/1/5 15/11/5 11/1/5
f 12/1/6 16/12/6 15/1/6
f 16/12/6 12/1/6 14/1/6
f 14/1/1 13/13/1 16/1/1
f 13/1/7 15/14/7 16/1/7
f 15/14/7 13/1/7 11/1/7
f 19/1/8 18/15/8 17/1/8
f 18/15/8 19/1/8 20/1/8
f 21/1/1 20/16/1 19/1/1
f 20/1/9 22/17/9 18/1/9
f 22/17/9 20/1/9 21/1/9
f 22/1/5 17/18/5 18/1/5
f 22/1/3 19/19/3 17/1/3
f 19/19/3 22/1/3 21/1/3
f 25/1/1 24/1/1 23/20/1
f 28/1/5 27/1/5 26/21/5
f 24/1/7 27/1/7 23/22/7
f 27/1/7 24/1/7 26/23/7
f 25/1/8 27/1/8 28/24/8
f 27/1/8 25/1/8 23/25/8
f 24/1/10 28/1/10 26/26/10
f 28/1/10 24/1/10 25/27/10
f 30/1/8 22/28/8 29/1/8
f 22/28/8 30/1/8 21/1/8
f 31/1/1 21/1/1 30/1/1
f 21/1/9 32/29/9 22/17/9
f 32/29/9 21/1/9 31/1/9
f 32/1/5 29/30/5 22/1/5
f 32/1/3 30/31/3 29/1/3
f 30/31/3 32/1/3 31/1/3
f 35/1/8 34/32/8 33/1/8
f 34/32/8 35/1/8 36/1/8
f 37/1/1 36/33/1 35/1/1
f 36/1/9 38/34/9 34/1/9
f 38/34/9 36/1/9 37/1/9
f 38/1/5 33/35/5 34/1/5
f 38/1/3 35/36/3 33/1/3
f 35/36/3 38/1/3 37/1/3
f 41/1/7 40/1/7 39/37/7
f 40/1/7 41/1/7 42/38/7
f 41/1/4 43/1/4 42/39/4
f 43/1/4 41/1/4 44/40/4
f 43/1/5 40/1/5 42/41/5
f 40/1/5 43/1/5 45/42/5
f 46/1/1 41/1/1 39/43/1
f 41/1/1 46/1/1 44/44/1
f 46/1/8 40/1/8 45/45/8
f 40/1/8 46/1/8 39/46/8
f 43/1/3 46/1/3 45/47/3
f 46/1/3 43/1/3 44/48/3
f 31/1/7 48/1/7 47/49/7
f 48/1/7 31/1/7 32/50/7
f 31/1/4 49/1/4 32/51/4
f 49/1/4 31/1/4 50/52/4
f 49/1/5 48/1/5 32/1/5
f 48/1/5 49/1/5 51/53/5
f 52/1/1 31/1/1 47/54/1
f 31/1/1 52/1/1 50/55/1
f 52/1/8 48/1/8 51/56/8
f 48/1/8 52/1/8 47/57/8
f 49/1/3 52/1/3 51/58/3
f 52/1/3 49/1/3 50/59/3
f 55/1/7 54/1/7 53/60/7
f 54/1/7 55/1/7 56/61/7
f 55/1/4 57/1/4 56/62/4
f 57/1/4 55/1/4 58/63/4
f 57/1/5 54/1/5 56/64/5
f 54/1/5 57/1/5 59/65/5
f 60/1/1 55/1/1 53/66/1
f 55/1/1 60/1/1 58/67/1
f 60/1/8 54/1/8 59/68/8
f 54/1/8 60/1/8 53/69/8
f 57/1/3 60/1/3 59/70/3
f 60/1/3 57/1/3 58/71/3
f 36/1/7 62/1/7 61/72/7
f 62/1/7 36/1/7 34/73/7
f 36/1/4 33/1/4 34/74/4
f 33/1/4 36/1/4 35/75/4
f 33/35/5 62/1/5 34/1/5
f 62/1/5 33/35/5 63/76/5
f 64/1/1 36/33/1 61/77/1
f 36/33/1 64/1/1 35/1/1
f 64/1/8 62/1/8 63/78/8
f 62/1/8 64/1/8 61/79/8
f 33/1/3 64/1/3 63/80/3
f 64/1/3 33/1/3 35/36/3
f 21/1/7 5/1/7 2/81/7
f 5/1/7 21/1/7 22/82/7
f 21/1/4 29/1/4 22/83/4
f 29/1/4 21/1/4 30/84/4
f 29/30/5 5/1/5 22/1/5
f 5/1/5 29/30/5 6/1/5
f 3/1/1 21/1/1 2/2/1
f 21/1/1 3/1/1 30/1/1
f 3/1/8 5/1/8 6/85/8
f 5/1/8 3/1/8 2/86/8
f 29/1/3 3/1/3 6/1/3
f 3/1/3 29/1/3 30/31/3
f 23/22/7 11/1/7 13/1/7
f 11/1/7 23/22/7 27/1/7
f 23/1/4 17/1/4 27/87/4
f 17/1/4 23/1/4 19/88/4
f 17/18/5 11/1/5 27/1/5
f 11/1/5 17/18/5 10/1/5
f 8/1/1 23/20/1 13/13/1
f 23/20/1 8/1/1 19/1/1
f 8/1/8 11/1/8 10/89/8
f 11/1/8 8/1/8 13/90/8
f 17/1/3 8/1/3 10/1/3
f 8/1/3 17/1/3 19/19/3
f 67/1/7 66/1/7 65/91/7
f 66/1/7 67/1/7 68/92/7
f 67/1/4 69/1/4 68/93/4
f 69/1/4 67/1/4 70/94/4
f 69/1/5 66/1/5 68/95/5
f 66/1/5 69/1/5 71/96/5
f 72/1/1 67/1/1 65/97/1
f 67/1/1 72/1/1 70/98/1
f 72/1/8 66/1/8 71/99/8
f 66/1/8 72/1/8 65/100/8
f 69/1/3 72/1/3 71/101/3
f 72/1/3 69/1/3 70/102/3

