# Created by Kenney (www.kenney.nl)

mtllib Bench.mtl

g furniture_bench

v 0.5 0.2255014 0.13
v -0.5 0.2255014 0.13
v 0.5 0.2255014 -0.13
v -0.5 0.2255014 -0.13
v 0.44 0.1755014 -0.06
v 0.48 0.1755014 0.06
v 0.48 0.1755014 -0.06
v 0.48 0.1755014 0.11
v 0.43 0.1755014 0.06
v 0.43 0.1755014 -0.06
v 0.43 0.1755014 -0.11
v 0.5 0.1755014 -0.13
v 0.5 0.1755014 0.13
v -0.5 0.1755014 0.13
v 0.43 0.1755014 0.11
v -0.43 0.1755014 0.11
v -0.43 0.1755014 -0.06
v -0.43 0.1755014 0.06
v -0.44 0.1755014 -0.06
v -0.48 0.1755014 0.06
v -0.48 0.1755014 -0.06
v -0.48 0.1755014 -0.11
v -0.48 0.1755014 0.11
v -0.5 0.1755014 -0.13
v 0.48 0.1755014 -0.11
v -0.43 0.1755014 -0.11
v -0.43 6.979798E-16 0.11
v -0.48 7.264503E-16 0.11
v 0.48 8.166893E-16 0.06
v 0.48 7.882187E-16 0.11
v -0.48 2.48703E-13 -0.11
v -0.48 2.48703E-13 -0.06
v -0.43 7.264503E-16 0.06
v -0.44 0 0.06
v -0.48 7.264503E-16 0.06
v 0.43 0.1327507 -0.0975
v 0.43 0.1327507 -0.0725
v -0.43 0.1327507 -0.0975
v -0.43 0.1327507 -0.0725
v -0.43 2.486746E-13 -0.06
v -0.43 2.48703E-13 -0.11
v -0.43 0.1327507 0.0725
v -0.43 0.1327507 0.0975
v -0.43 0.08275071 0.0975
v -0.43 0.08275071 0.0725
v 0.43 8.166893E-16 0.11
v -0.4425 0.08275071 0.06
v -0.4425 0.08275071 -0.06
v -0.4675 0.08275071 0.06
v -0.4675 0.08275071 -0.06
v 0.44 1.54314E-15 0.06
v 0.43 8.166893E-16 0.06
v -0.4425 0.1327507 -0.06
v -0.4675 0.1327507 -0.06
v -0.4675 0.1327507 0.06
v 0.43 2.487933E-13 -0.11
v 0.48 2.487933E-13 -0.11
v 0.43 0.08275071 -0.0725
v 0.43 0.08275071 -0.0975
v -0.43 0.08275071 -0.0725
v -0.43 0.08275071 -0.0975
v -0.4425 0.1327507 0.06
v 0.4675 0.1327507 0.06
v 0.4425 0.1327507 0.06
v 0.4675 0.1327507 -0.06
v 0.4425 0.1327507 -0.06
v 0.43 0.08275071 0.0975
v 0.43 0.08275071 0.0725
v 0.4675 0.08275071 0.06
v 0.4675 0.08275071 -0.06
v 0.4425 0.08275071 0.06
v 0.4425 0.08275071 -0.06
v 0.48 2.487648E-13 -0.06
v 0.43 0.1327507 0.0975
v 0.43 2.487933E-13 -0.06
v 0.43 0.1327507 0.0725

vn 0 1 0
vn 0 -1 0
vn -1 0 0
vn 0 0 1
vn 1 0 0
vn 0 0 -1

vt -0.5 0.13
vt 0.5 0.13
vt -0.5 -0.13
vt 0.5 -0.13
vt -0.44 0.06
vt -0.48 -0.06
vt -0.48 0.06
vt 0.48 0.1755014
vt -0.43 -0.06
vt -0.43 0.06
vt 0.43 0.1755014
vt -0.48 -0.11
vt -0.43 -0.11
vt 0.43 -0.11
vt 0.43 0.06
vt -0.43 0.1755014
vt 0.44 0.06
vt 0.43 -0.06
vt 0.48 -0.06
vt 0.48 0.06
vt -0.48 0.1755014
vt 0.48 -0.11
vt -0.43 0.11
vt 0.48 0.11
vt -0.48 0.11
vt 0.43 0.11
vt -0.13 0.1755014
vt -0.13 0.2255014
vt 0.13 0.1755014
vt 0.13 0.2255014
vt 0.5 0.1755014
vt -0.5 0.1755014
vt 0.5 0.2255014
vt -0.5 0.2255014
vt -0.43 6.979798E-16
vt -0.48 7.264503E-16
vt -0.06 0.1755014
vt -0.06 8.166893E-16
vt -0.11 0.1755014
vt -0.11 7.882187E-16
vt -0.11 2.48703E-13
vt -0.06 2.48703E-13
vt 0.44 -0.06
vt -0.43 -0.0975
vt -0.43 -0.0725
vt 0.43 -0.0975
vt 0.43 -0.0725
vt -0.06 7.264503E-16
vt -0.0725 0.1327507
vt -0.0975 0.1327507
vt -0.0975 0.08275071
vt -0.0725 0.08275071
vt -0.11 6.979798E-16
vt 0.06 7.264503E-16
vt 0.06 0.1755014
vt 0.11 7.264503E-16
vt 0.11 0.1755014
vt 0.48 7.882187E-16
vt 0.43 8.166893E-16
vt 0.4425 -0.06
vt 0.4425 0.06
vt 0.4675 -0.06
vt 0.4675 0.06
vt -0.44 -0.06
vt -0.48 2.48703E-13
vt -0.4425 0.08275071
vt -0.43 2.486746E-13
vt -0.4425 0.1327507
vt -0.4675 0.1327507
vt -0.4675 0.08275071
vt -0.44 0.1755014
vt -0.06 0.08275071
vt -0.06 0.1327507
vt 0.06 0.08275071
vt 0.06 0.1327507
vt -0.43 2.487933E-13
vt -0.48 2.487933E-13
vt -0.43 0.0725
vt -0.43 0.0975
vt 0.43 0.0725
vt 0.43 0.0975
vt -0.4675 0.06
vt -0.4425 0.06
vt -0.4675 -0.06
vt -0.4425 -0.06
vt -0.43 8.166893E-16
vt -0.44 1.54314E-15
vt -0.48 8.166893E-16
vt 0.43 0.08275071
vt -0.43 0.08275071
vt 0.43 0.1327507
vt -0.43 0.1327507
vt 0.11 2.487933E-13
vt 0.06 2.487648E-13
vt -0.44 0
vt -0.43 7.264503E-16
vt 0.4675 0.08275071
vt 0.48 7.264503E-16
vt 0.43 7.264503E-16
vt 0.4675 0.1327507
vt 0.4425 0.1327507
vt 0.4425 0.08275071
vt 0.43 2.487933E-13
vt 0.48 2.487648E-13
vt 0.44 0.1755014
vt 0.48 2.48703E-13
vt 0.43 2.48703E-13
vt -0.11 2.487933E-13
vt -0.06 2.487933E-13
vt 0.11 2.48703E-13
vt 0.0975 0.1327507
vt 0.0725 0.1327507
vt 0.0725 0.08275071
vt 0.0975 0.08275071
vt 0.06 2.486746E-13
vt 0.06 8.166893E-16
vt 0.11 8.166893E-16

usemtl wood(Clone)

f 3/3/1 2/2/1 1/1/1
f 2/2/1 3/3/1 4/4/1
f 7/7/2 6/6/2 5/5/2
f 6/8/2 7/8/2 8/8/2
f 5/5/2 6/6/2 9/9/2
f 5/5/2 9/9/2 10/10/2
f 10/11/2 9/11/2 11/11/2
f 12/1/2 8/12/2 7/7/2
f 13/3/2 8/12/2 12/1/2
f 8/12/2 13/3/2 14/4/2
f 8/12/2 14/4/2 15/13/2
f 15/13/2 14/4/2 9/9/2
f 9/9/2 14/4/2 16/14/2
f 9/9/2 16/14/2 17/15/2
f 18/16/2 17/16/2 16/16/2
f 17/15/2 18/18/2 19/17/2
f 19/17/2 18/18/2 20/19/2
f 19/17/2 20/19/2 21/20/2
f 21/21/2 20/21/2 22/21/2
f 16/14/2 14/4/2 23/22/2
f 23/22/2 14/4/2 20/19/2
f 24/2/2 11/23/2 9/9/2
f 24/2/2 22/24/2 20/19/2
f 24/2/2 20/19/2 14/4/2
f 12/1/2 25/25/2 24/2/2
f 24/2/2 25/25/2 11/23/2
f 25/25/2 12/1/2 7/7/2
f 24/2/2 26/26/2 22/24/2
f 24/2/2 9/9/2 26/26/2
f 26/26/2 9/9/2 17/15/2
f 14/29/3 4/28/3 24/27/3
f 4/28/3 14/29/3 2/30/3
f 1/33/4 14/32/4 13/31/4
f 14/32/4 1/33/4 2/34/4
f 3/30/5 13/27/5 12/29/5
f 13/27/5 3/30/5 1/28/5
f 4/33/6 12/32/6 24/31/6
f 12/32/6 4/33/6 3/34/6

usemtl woodLight(Clone)

f 16/16/4 28/36/4 27/35/4
f 28/36/4 16/16/4 23/21/4
f 8/39/5 29/38/5 6/37/5
f 29/38/5 8/39/5 30/40/5
f 32/42/3 22/39/3 31/41/3
f 22/39/3 32/42/3 21/37/3
f 28/22/2 33/18/2 27/14/2
f 33/18/2 28/22/2 34/43/2
f 34/43/2 28/22/2 35/19/2
f 38/46/1 37/45/1 36/44/1
f 37/45/1 38/46/1 39/47/1
f 32/20/2 41/26/2 40/15/2
f 41/26/2 32/20/2 31/24/2
f 18/37/5 42/49/5 33/48/5
f 42/49/5 18/37/5 16/39/5
f 42/49/5 16/39/5 43/50/5
f 43/50/5 16/39/5 44/51/5
f 45/52/5 33/48/5 42/49/5
f 33/48/5 45/52/5 27/53/5
f 27/53/5 45/52/5 44/51/5
f 27/53/5 44/51/5 16/39/5
f 28/56/3 20/55/3 35/54/3
f 20/55/3 28/56/3 23/57/3
f 8/8/4 46/59/4 30/58/4
f 46/59/4 8/8/4 15/11/4
f 49/62/2 48/61/2 47/60/2
f 48/61/2 49/62/2 50/63/2
f 46/13/2 29/6/2 30/12/2
f 29/6/2 46/13/2 51/64/2
f 51/64/2 46/13/2 52/9/2
f 40/67/4 48/66/4 32/65/4
f 48/66/4 40/67/4 17/16/4
f 48/66/4 17/16/4 53/68/4
f 53/68/4 17/16/4 54/69/4
f 50/70/4 32/65/4 48/66/4
f 32/65/4 50/70/4 21/21/4
f 21/21/4 50/70/4 54/69/4
f 21/21/4 54/69/4 17/16/4
f 21/21/4 17/16/4 19/71/4
f 49/74/3 54/73/3 50/72/3
f 54/73/3 49/74/3 55/75/3
f 11/16/6 57/77/6 56/76/6
f 57/77/6 11/16/6 25/21/6
f 60/80/2 59/79/2 58/78/2
f 59/79/2 60/80/2 61/81/2
f 53/60/1 55/63/1 62/61/1
f 55/63/1 53/60/1 54/62/1
f 65/84/1 64/83/1 63/82/1
f 64/83/1 65/84/1 66/85/1
f 44/46/2 68/45/2 67/44/2
f 68/45/2 44/46/2 45/47/2
f 71/85/2 70/82/2 69/84/2
f 70/82/2 71/85/2 72/83/2
f 9/16/6 51/87/6 52/86/6
f 51/87/6 9/16/6 71/66/6
f 71/66/6 9/16/6 64/68/6
f 64/68/6 9/16/6 63/69/6
f 69/70/6 51/87/6 71/66/6
f 69/70/6 29/88/6 51/87/6
f 29/88/6 69/70/6 6/21/6
f 6/21/6 69/70/6 63/69/6
f 6/21/6 63/69/6 9/16/6
f 37/91/4 60/90/4 58/89/4
f 60/90/4 37/91/4 39/92/4
f 7/55/5 57/93/5 25/57/5
f 57/93/5 7/55/5 73/94/5
f 35/36/6 33/96/6 34/95/6
f 33/99/6 35/98/6 49/97/6
f 49/97/6 35/98/6 20/8/6
f 49/97/6 20/8/6 55/100/6
f 55/100/6 20/8/6 62/101/6
f 47/102/6 33/99/6 49/97/6
f 33/99/6 47/102/6 18/11/6
f 18/11/6 47/102/6 62/101/6
f 18/11/6 62/101/6 20/8/6
f 74/91/4 44/90/4 67/89/4
f 44/90/4 74/91/4 43/92/4
f 71/74/3 66/73/3 72/72/3
f 66/73/3 71/74/3 64/75/3
f 73/104/4 70/97/4 75/103/4
f 70/97/4 73/104/4 7/8/4
f 70/97/4 7/8/4 65/100/4
f 65/100/4 7/8/4 66/101/4
f 66/101/4 7/8/4 5/105/4
f 72/102/4 75/103/4 70/97/4
f 75/103/4 72/102/4 10/11/4
f 10/11/4 72/102/4 66/101/4
f 10/11/4 66/101/4 5/105/4
f 22/8/6 41/107/6 31/106/6
f 41/107/6 22/8/6 26/11/6
f 53/75/5 47/72/5 48/74/5
f 47/72/5 53/75/5 62/73/5
f 42/80/1 74/79/1 76/78/1
f 74/79/1 42/80/1 43/81/1
f 56/108/3 59/51/3 11/39/3
f 59/51/3 56/108/3 75/109/3
f 59/51/3 75/109/3 58/52/3
f 58/52/3 75/109/3 37/49/3
f 36/50/3 11/39/3 59/51/3
f 11/39/3 36/50/3 10/37/3
f 10/37/3 36/50/3 37/49/3
f 10/37/3 37/49/3 75/109/3
f 61/89/6 36/92/6 59/90/6
f 36/92/6 61/89/6 38/91/6
f 26/57/5 38/111/5 41/110/5
f 38/111/5 26/57/5 17/55/5
f 38/111/5 17/55/5 39/112/5
f 39/112/5 17/55/5 60/113/5
f 61/114/5 41/110/5 38/111/5
f 41/110/5 61/114/5 40/115/5
f 40/115/5 61/114/5 60/113/5
f 40/115/5 60/113/5 17/55/5
f 65/75/5 69/72/5 70/74/5
f 69/72/5 65/75/5 63/73/5
f 75/10/2 57/25/2 73/7/2
f 57/25/2 75/10/2 56/23/2
f 52/116/3 68/113/3 9/55/3
f 68/113/3 52/116/3 46/117/3
f 68/113/3 46/117/3 67/114/3
f 67/114/3 46/117/3 74/111/3
f 76/112/3 9/55/3 68/113/3
f 9/55/3 76/112/3 15/57/3
f 15/57/3 76/112/3 74/111/3
f 15/57/3 74/111/3 46/117/3
f 45/89/6 76/92/6 68/90/6
f 76/92/6 45/89/6 42/91/6

