# Created by Kenney (www.kenney.nl)

mtllib Bowl.mtl

g bowl

v 2.219923 0.2138248 18.12697
v 2 0.2138248 18.25395
v 2.182536 0.0638248 18.10539
v 2.182536 0.0638248 17.89461
v 2 0.0638248 18.21078
v 2.219923 0.2138248 17.87303
v 1.780077 0.2138248 18.12697
v 2 0.0638248 17.78922
v 1.817464 0.0638248 18.10539
v 2 0.2138248 17.74605
v 1.817464 0.0638248 17.89461
v 1.780077 0.2138248 17.87303
v 1.866303 0 18.07719
v 1.866303 0 17.92281
v 1.798649 0.0430125 18.11625
v 2 0 18.15438
v 1.798649 0.0430125 17.88375
v 2 0.0430125 18.2325
v 2 0 17.84562
v 2 0.0430125 17.7675
v 2.133697 0 17.92281
v 2.201351 0.0430125 17.88375
v 2.133697 0 18.07719
v 2.201351 0.0430125 18.11625
v 1.748924 0.1467 18.14496
v 2 0.1467 18.28992
v 1.780527 0.07788751 18.12671
v 1.780527 0.07788751 17.87329
v 2 0.07788751 18.25343
v 1.748924 0.1467 17.85504
v 2.251076 0.1467 18.14496
v 2 0.07788751 17.74657
v 2.219472 0.07788751 18.12671
v 2 0.1467 17.71008
v 2.219472 0.07788751 17.87329
v 2.251076 0.1467 17.85504
v 2.251076 0.2138248 18.14496
v 2.251076 0.2138248 17.85504
v 2 0.2138248 18.28992
v 2 0.2138248 17.71008
v 1.748924 0.2138248 18.14496
v 1.748924 0.2138248 17.85504

vn -0.773986 0.2572176 -0.446861
vn 0 0.2572177 -0.8937222
vn -0.773986 0.2572176 0.446861
vn 0.773986 0.2572176 -0.446861
vn 0 0.2572177 0.8937222
vn 0.773986 0.2572176 0.446861
vn -0.3884615 -0.8146759 0.2242783
vn -0.3884615 -0.8146759 -0.2242783
vn 0 -0.8146759 0.4485567
vn 0 -0.8146759 -0.4485567
vn 0.3884615 -0.8146759 -0.2242783
vn 0.3884615 -0.8146759 0.2242783
vn -0.7115362 -0.4357235 0.4108056
vn 0 -0.4357235 0.8216112
vn -0.7115362 -0.4357235 -0.4108056
vn 0.7115362 -0.4357235 0.4108056
vn 0 -0.4357235 -0.8216112
vn 0.7115362 -0.4357235 -0.4108056
vn 0.8054036 0 0.465
vn 0.8054036 0 -0.465
vn 0 0 0.9300001
vn 0 0 -0.9300001
vn -0.8054036 0 0.465
vn -0.8054036 0 -0.465
vn -0.6906279 -0.478481 0.3987342
vn -0.6906279 -0.478481 -0.3987342
vn 0 -0.478481 0.7974685
vn 0 -0.478481 -0.7974685
vn 0.6906279 -0.478481 0.3987342
vn 0.6906279 -0.478481 -0.3987342
vn 0 0.9300001 0
vn 0 -0.9300001 0

vt -2.219923 0.2138248
vt -2 0.2138248
vt -2.182536 0.0638248
vt 18.10539 0.0638248
vt 17.89461 0.0638248
vt 18.12697 0.2138248
vt -2 0.0638248
vt 17.87303 0.2138248
vt -1.780077 0.2138248
vt 2.182536 0.0638248
vt 2 0.0638248
vt 2.219923 0.2138248
vt -1.817464 0.0638248
vt 2 0.2138248
vt -18.10539 0.0638248
vt -18.12697 0.2138248
vt -17.89461 0.0638248
vt 1.817464 0.0638248
vt -17.87303 0.2138248
vt 1.780077 0.2138248
vt -1.866303 -18.07719
vt -1.866303 -17.92281
vt -1.798649 -18.11625
vt -2 -18.15438
vt -1.798649 -17.88375
vt -2 -18.2325
vt -2 -17.84562
vt -2 -17.7675
vt -2.133697 -17.92281
vt -2.201351 -17.88375
vt -2.133697 -18.07719
vt -2.201351 -18.11625
vt 1.748924 0.1467
vt 2 0.1467
vt 1.780527 0.07788751
vt 18.12671 0.07788751
vt 17.87329 0.07788751
vt 18.14496 0.1467
vt 2 0.07788751
vt 17.85504 0.1467
vt 2.251076 0.1467
vt -1.780527 0.07788751
vt -2 0.07788751
vt -1.748924 0.1467
vt 2.219472 0.07788751
vt -2 0.1467
vt -18.12671 0.07788751
vt -18.14496 0.1467
vt -17.87329 0.07788751
vt -2.219472 0.07788751
vt -17.85504 0.1467
vt -2.251076 0.1467
vt -18.14496 0.2138248
vt 2.251076 0.2138248
vt -17.85504 0.2138248
vt -2.251076 0.2138248
vt 1.748924 0.2138248
vt 18.14496 0.2138248
vt 17.85504 0.2138248
vt -1.748924 0.2138248
vt 18.11625 0.0430125
vt 17.88375 0.0430125
vt 1.798649 0.0430125
vt 2 0.0430125
vt -1.798649 0.0430125
vt -2 0.0430125
vt 2.201351 0.0430125
vt -2.201351 0.0430125
vt -18.11625 0.0430125
vt -17.88375 0.0430125
vt -1.748924 17.85504
vt -1.780077 18.12697
vt -1.748924 18.14496
vt -2 18.28992
vt -1.780077 17.87303
vt -2 18.25395
vt -2 17.74605
vt -2 17.71008
vt -2.219923 18.12697
vt -2.251076 18.14496
vt -2.219923 17.87303
vt -2.251076 17.85504
vt -1.817464 18.10539
vt -1.817464 17.89461
vt -2 18.21078
vt -2 17.78922
vt -2.182536 18.10539
vt -2.182536 17.89461
vt -1.798649 18.11625
vt -1.798649 17.88375
vt -2 18.2325
vt -2 17.7675
vt -2.201351 18.11625
vt -2.201351 17.88375

usemtl _defaultMat(Clone)

f 3/3/1 2/2/2 1/1/1
f 1/6/1 4/5/3 3/4/1
f 2/2/2 3/3/1 5/7/2
f 4/5/3 1/6/1 6/8/3
f 5/7/2 7/9/4 2/2/2
f 6/12/3 8/11/5 4/10/3
f 7/9/4 5/7/2 9/13/4
f 8/11/5 6/12/3 10/14/5
f 11/17/6 7/16/4 9/15/4
f 10/14/5 11/18/6 8/11/5
f 7/16/4 11/17/6 12/19/6
f 11/18/6 10/14/5 12/20/6
f 15/23/7 14/22/8 13/21/7
f 16/24/9 15/23/7 13/21/7
f 14/22/8 15/23/7 17/25/8
f 15/23/7 16/24/9 18/26/9
f 17/25/8 19/27/10 14/22/8
f 19/27/10 17/25/8 20/28/10
f 20/28/10 21/29/11 19/27/10
f 21/29/11 20/28/10 22/30/11
f 22/30/11 23/31/12 21/29/11
f 23/31/12 18/26/9 16/24/9
f 23/31/12 22/30/11 24/32/12
f 18/26/9 23/31/12 24/32/12
f 27/35/13 26/34/14 25/33/13
f 25/38/13 28/37/15 27/36/13
f 26/34/14 27/35/13 29/39/14
f 28/37/15 25/38/13 30/40/15
f 29/39/14 31/41/16 26/34/14
f 30/44/15 32/43/17 28/42/15
f 31/41/16 29/39/14 33/45/16
f 32/43/17 30/44/15 34/46/17
f 35/49/18 31/48/16 33/47/16
f 34/46/17 35/50/18 32/43/17
f 31/48/16 35/49/18 36/51/18
f 35/50/18 34/46/17 36/52/18
f 36/51/20 37/53/19 31/48/19
f 37/54/19 26/34/21 31/41/19
f 37/53/19 36/51/20 38/55/20
f 26/34/21 37/54/19 39/14/21
f 36/52/20 40/2/22 38/56/20
f 40/2/22 36/52/20 34/46/22
f 39/14/21 25/33/23 26/34/21
f 25/33/23 39/14/21 41/57/23
f 42/59/24 25/38/23 41/58/23
f 34/46/22 42/60/24 40/2/22
f 25/38/23 42/59/24 30/40/24
f 42/60/24 34/46/22 30/44/24
f 27/36/25 17/62/26 15/61/25
f 15/63/25 29/39/27 27/35/25
f 17/62/26 27/36/25 28/37/26
f 29/39/27 15/63/25 18/64/27
f 28/42/26 20/66/28 17/65/26
f 18/64/27 33/45/29 29/39/27
f 20/66/28 28/42/26 32/43/28
f 33/45/29 18/64/27 24/67/29
f 32/43/28 22/68/30 20/66/28
f 22/70/30 33/47/29 24/69/29
f 22/68/30 32/43/28 35/50/30
f 33/47/29 22/70/30 35/49/30
f 41/73/31 7/72/31 42/71/31
f 39/74/31 7/72/31 41/73/31
f 12/75/31 42/71/31 7/72/31
f 39/74/31 2/76/31 7/72/31
f 10/77/31 42/71/31 12/75/31
f 10/77/31 40/78/31 42/71/31
f 39/74/31 1/79/31 2/76/31
f 37/80/31 1/79/31 39/74/31
f 6/81/31 40/78/31 10/77/31
f 1/79/31 37/80/31 6/81/31
f 6/81/31 38/82/31 40/78/31
f 38/82/31 6/81/31 37/80/31
f 5/85/31 11/84/31 9/83/31
f 5/85/31 8/86/31 11/84/31
f 3/87/31 8/86/31 5/85/31
f 8/86/31 3/87/31 4/88/31
f 19/27/32 13/21/32 14/22/32
f 19/27/32 16/24/32 13/21/32
f 21/29/32 16/24/32 19/27/32
f 16/24/32 21/29/32 23/31/32
f 18/91/31 17/90/31 15/89/31
f 18/91/31 20/92/31 17/90/31
f 24/93/31 20/92/31 18/91/31
f 20/92/31 24/93/31 22/94/31

