# Created by Kenney (www.kenney.nl)

mtllib Cup.mtl

g cup

v -0.4388155 0.185868 -0.077922
v -0.1688859 0.185868 -0.077922
v -0.4388155 0.24 -0.077922
v -0.382697 0.24 -0.077922
v -0.2848265 0.3398573 -0.077922
v -0.382697 0.3398573 -0.077922
v -0.2577915 0.3398573 -0.077922
v 0.1010441 0.6534001 -0.077922
v -0.0767675 0.6534001 -0.077922
v -0.2577915 0.9669431 -0.077922
v -0.1688859 1.120932 -0.077922
v -0.4388155 1.0668 -0.077922
v -0.382697 1.0668 -0.077922
v -0.4388155 1.120932 -0.077922
v -0.2848265 0.9669431 -0.077922
v -0.382697 0.9669431 -0.077922
v -0.2577915 0.3398573 0.077922
v -0.0767675 0.6534001 0.077922
v -1.43375 1.3668 0.2504257
v -1.561185 1.3668 0.324
v -1.43375 1.2468 0.2504257
v -1.561185 1.2468 0.324
v -0.56625 1.2468 -0.2504257
v -0.4388155 1.2468 -0.324
v -0.56625 1.2468 0.2504257
v -0.4388155 1.2468 0.324
v -1.561185 1.3068 -0.324
v -1.561185 1.2468 -0.324
v -1 1.3068 -0.648
v -1 1.0668 -0.648
v -1.561185 1.0668 -0.324
v -1.561185 0.24 0.324
v -1.561185 7.50126E-18 0.324
v -1.561185 0.24 -0.324
v -1.561185 7.50126E-18 -0.324
v -1 7.50126E-18 -0.648
v -1 7.50126E-18 0.648
v -0.4388155 7.50126E-18 -0.324
v -0.4388155 7.50126E-18 0.324
v -0.4388155 0.24 -0.324
v -0.4388155 0.185868 0.077922
v -0.4388155 0.24 0.324
v -0.4388155 0.24 0.077922
v -0.4388155 1.0668 0.324
v -0.4388155 1.0668 0.077922
v -0.4388155 1.120932 0.077922
v -0.4388155 1.0668 -0.324
v -1 1.3668 -0.5008515
v -0.56625 1.3668 -0.2504257
v -1 1.3068 -0.5008515
v -1 0.2268 -0.5008515
v -0.56625 0.2268 -0.2504257
v -1.43375 0.2268 0.2504257
v -1.43375 0.2268 -0.2504257
v -1.43375 1.2468 -0.2504257
v -1.561185 1.0668 0.324
v -0.4388155 0.42 0.324
v -0.4388155 0.8868001 0.324
v -0.4388155 0.42 -0.324
v -0.4388155 0.8868001 -0.324
v -1 1.3668 0.5008515
v -1 1.3068 0.5008515
v -1 0.2268 0.5008515
v -1 0.24 0.648
v -1.43375 1.3068 -0.2504257
v -1 0.8868001 0.648
v -1 0.42 0.648
v -1 0.8868001 -0.648
v -1 0.42 -0.648
v -1 1.3668 -0.648
v -0.4388155 1.3668 -0.324
v -0.56625 0.2268 0.2504257
v -0.4388155 1.3068 0.324
v -0.56625 1.3068 0.2504257
v -1.561185 0.8868001 -0.324
v -1.561185 0.42 -0.324
v -1 1.3668 0.648
v -1 1.3068 0.648
v -1 1.0668 0.648
v -1 0.24 -0.648
v -1.561185 0.8868001 0.324
v -1.561185 0.42 0.324
v -0.1688859 0.185868 0.077922
v 0.1010441 0.6534001 0.077922
v -0.382697 0.3398573 0.077922
v -0.2848265 0.3398573 0.077922
v -0.1688859 1.120932 0.077922
v -0.382697 1.0668 0.077922
v -0.382697 0.9669431 0.077922
v -0.2848265 0.9669431 0.077922
v -0.2577915 0.9669431 0.077922
v -0.382697 0.24 0.077922
v -1.617303 0.42 0.3564
v -1 0.42 0.7128
v -1.617303 0.42 -0.3564
v -0.382697 0.42 0.3564
v -0.382697 0.42 -0.3564
v -1 0.42 -0.7128
v -1.617303 0.8868001 0.3564
v -1.617303 0.8868001 -0.3564
v -1 0.8868001 -0.7128
v -1 0.8868001 0.7128
v -0.382697 0.8868001 -0.3564
v -0.382697 0.8868001 0.3564
v -0.382697 0.24 0.3564
v -1 0.24 0.7128
v -1.617303 0.24 0.3564
v -1.617303 0.24 -0.3564
v -1 0.24 -0.7128
v -0.382697 0.24 -0.3564
v -0.382697 1.0668 -0.3564
v -1 1.0668 -0.7128
v -1.617303 1.0668 -0.3564
v -1.617303 1.0668 0.3564
v -1 1.0668 0.7128
v -0.382697 1.0668 0.3564

vn 0 0 -5
vn -2.5 4.330127 0
vn -5 0 0
vn -2.5 0 -4.330127
vn 0 5 0
vn 0 -5 0
vn 5 0 0
vn -2.5 0 4.330127
vn 2.5 0 -4.330127
vn 2.5 0 4.330127
vn 2.5 -4.330127 0
vn 0 0 5
vn 2.5 4.330127 0
vn -2.5 -4.330127 0
vn -4.330127 0 2.5
vn -4.330127 0 -2.5
vn 4.330127 0 2.5
vn 4.330127 0 -2.5

vt 0.4388155 0.185868
vt 0.1688859 0.185868
vt 0.4388155 0.24
vt 0.382697 0.24
vt -0.2848265 0.3398573
vt -0.382697 0.3398573
vt -0.2577915 0.3398573
vt 0.382697 0.3398573
vt 0.2577915 0.3398573
vt -0.101044 0.6534001
vt 0.07676749 0.6534001
vt 0.2577915 0.9669431
vt 0.1688859 1.120932
vt 0.4388155 1.0668
vt 0.382697 1.0668
vt 0.4388155 1.120932
vt 0.2848265 0.9669431
vt 0.382697 0.9669431
vt 0.077922 0.3398573
vt -0.077922 0.3398573
vt 0.077922 0.6534001
vt -0.077922 0.6534001
vt 1.43375 1.3668
vt 1.561185 1.3668
vt 1.43375 1.2468
vt 1.561185 1.2468
vt 0.56625 -0.2504257
vt 0.4388155 -0.324
vt 0.56625 0.2504257
vt 0.4388155 0.324
vt 1.561185 1.3068
vt 1 1.3068
vt 1 1.0668
vt 1.561185 1.0668
vt 0.324 0.24
vt 0.324 7.50126E-18
vt -0.324 0.24
vt -0.324 7.50126E-18
vt 1.561185 0.324
vt 1.561185 -0.324
vt 1 0.648
vt 1 -0.648
vt 0.077922 0.24
vt 0.077922 0.185868
vt -0.077922 0.185868
vt -0.077922 0.24
vt -0.324 1.0668
vt -0.324 1.2468
vt -0.077922 1.0668
vt -0.077922 1.120932
vt 0.077922 1.120932
vt 0.324 1.0668
vt 0.077922 1.0668
vt 0.324 1.2468
vt -1 1.3668
vt -0.56625 1.3668
vt -1 1.3068
vt -0.56625 1.2468
vt -1 0.2268
vt -0.56625 0.2268
vt -0.2504257 0.2268
vt -0.2504257 1.2468
vt 0.2504257 0.2268
vt 0.2504257 1.2468
vt -0.324 0.42
vt -0.324 0.8868001
vt 0.324 0.42
vt 0.324 0.8868001
vt 1 1.3668
vt 1 0.2268
vt 1.43375 0.2268
vt -1.561185 0.24
vt -1 0.24
vt -1.561185 7.50126E-18
vt -1 7.50126E-18
vt 1.43375 -0.2504257
vt 1.43375 0.2504257
vt 1 -0.5008515
vt -1 0.8868001
vt -0.4388155 0.8868001
vt -1 0.42
vt -0.4388155 0.42
vt 0.4388155 0.8868001
vt 1 0.8868001
vt 0.4388155 0.42
vt 1 0.42
vt 0.4388155 1.3668
vt 0.4388155 1.2468
vt -1.43375 1.3068
vt -1.43375 1.2468
vt -1.43375 0.2268
vt -1.561185 1.3068
vt -1.561185 1.2468
vt -0.4388155 0.24
vt -0.4388155 7.50126E-18
vt 0.4388155 1.3068
vt 0.56625 1.3068
vt 0.56625 1.2468
vt 1 0.5008515
vt -0.5008515 1.3668
vt -0.5008515 1.3068
vt -0.648 1.3668
vt -0.648 1.3068
vt 1.561185 0.8868001
vt 1.561185 0.42
vt -1.561185 1.3668
vt -1.561185 1.0668
vt -1 1.0668
vt 1 0.24
vt 1.561185 0.24
vt 1 7.50126E-18
vt 1.561185 7.50126E-18
vt 0.4388155 7.50126E-18
vt 0.382697 -0.077922
vt 0.2848265 -0.077922
vt 0.382697 0.077922
vt 0.2848265 0.077922
vt 0.2577915 -0.077922
vt 0.2577915 0.077922
vt -0.4388155 1.120932
vt -0.1688859 1.120932
vt -0.4388155 1.0668
vt -0.382697 1.0668
vt -0.382697 0.9669431
vt -0.2848265 0.9669431
vt -0.2577915 0.9669431
vt -0.07676749 0.6534001
vt 0.101044 0.6534001
vt -0.1688859 0.185868
vt -0.4388155 0.185868
vt -0.382697 0.24
vt 0.4388155 0.077922
vt 0.4388155 -0.077922
vt 0.1688859 0.077922
vt 0.1688859 -0.077922
vt -1.561185 0.8868001
vt -1.561185 0.42
vt 0.56625 0.2268
vt -0.4388155 1.3668
vt -0.4388155 1.2468
vt -0.4388155 1.3068
vt 0.077922 0.9669431
vt -0.077922 0.9669431
vt 1.617303 0.3564
vt 1 0.7128
vt 1.617303 -0.3564
vt 0.382697 0.3564
vt 0.382697 -0.3564
vt 1 -0.7128
vt 0.3564 0.42
vt 0.3564 0.24
vt -0.3564 0.42
vt -0.3564 0.24
vt -1.617303 0.42
vt -1.617303 0.24
vt -0.382697 0.42
vt 0.382697 0.42
vt 1.617303 0.42
vt 1.617303 0.24
vt 1.617303 1.0668
vt 1.617303 0.8868001
vt -1.617303 1.0668
vt -1.617303 0.8868001
vt 0.382697 0.8868001
vt 0.3564 1.0668
vt 0.3564 0.8868001
vt -0.3564 1.0668
vt -0.3564 0.8868001
vt -0.382697 0.8868001

usemtl brownDark(Clone)

f 3/3/1 2/2/1 1/1/1
f 2/2/1 3/3/1 4/4/1
f 7/7/1 6/6/1 5/5/1
f 7/9/1 4/4/1 6/8/1
f 2/2/1 4/4/1 7/9/1
f 2/2/1 7/9/1 8/10/1
f 8/10/1 7/9/1 9/11/1
f 8/10/1 9/11/1 10/12/1
f 8/10/1 10/12/1 11/13/1
f 14/16/1 13/15/1 12/14/1
f 13/15/1 14/16/1 11/13/1
f 11/13/1 10/12/1 13/15/1
f 15/17/1 13/15/1 10/12/1
f 13/15/1 15/17/1 16/18/1
f 18/21/3 7/20/2 17/19/2
f 7/20/2 18/21/3 9/22/3
f 21/25/4 20/24/4 19/23/4
f 20/24/4 21/25/4 22/26/4
f 25/29/5 24/28/5 23/27/5
f 24/28/5 25/29/5 26/30/5
f 29/32/4 28/26/4 27/31/4
f 30/33/4 28/26/4 29/32/4
f 28/26/4 30/33/4 31/34/4
f 34/37/3 33/36/3 32/35/3
f 33/36/3 34/37/3 35/38/3
f 36/41/6 33/40/6 35/39/6
f 36/41/6 37/42/6 33/40/6
f 38/30/6 37/42/6 36/41/6
f 37/42/6 38/30/6 39/28/6
f 3/43/7 38/36/7 40/35/7
f 38/36/7 3/43/7 1/44/7
f 38/36/7 1/44/7 39/38/7
f 39/38/7 1/44/7 41/45/7
f 41/45/7 42/37/7 39/38/7
f 42/37/7 41/45/7 43/46/7
f 45/49/7 26/48/7 44/47/7
f 46/50/7 26/48/7 45/49/7
f 14/51/7 26/48/7 46/50/7
f 12/53/7 47/52/7 14/51/7
f 47/52/7 26/48/7 14/51/7
f 26/48/7 47/52/7 24/54/7
f 50/57/8 49/56/8 48/55/8
f 50/57/8 23/58/8 49/56/8
f 51/59/8 23/58/8 50/57/8
f 23/58/8 51/59/8 52/60/8
f 54/63/7 21/62/7 53/61/7
f 21/62/7 54/63/7 55/64/7
f 28/48/3 56/52/3 22/54/3
f 56/52/3 28/48/3 31/47/3
f 59/67/7 58/66/7 57/65/7
f 58/66/7 59/67/7 60/68/7
f 62/32/9 19/23/9 61/69/9
f 62/32/9 21/25/9 19/23/9
f 63/70/9 21/25/9 62/32/9
f 21/25/9 63/70/9 53/71/9
f 33/74/8 64/73/8 32/72/8
f 64/73/8 33/74/8 37/75/8
f 22/39/5 55/76/5 28/40/5
f 55/76/5 22/39/5 21/77/5
f 65/76/5 29/42/5 27/40/5
f 29/42/5 65/76/5 50/78/5
f 67/81/10 58/80/10 66/79/10
f 58/80/10 67/81/10 57/82/10
f 59/85/9 68/84/9 60/83/9
f 68/84/9 59/85/9 69/86/9
f 49/27/5 70/42/5 48/78/5
f 70/42/5 49/27/5 71/28/5
f 71/87/9 29/32/9 70/69/9
f 24/88/9 29/32/9 71/87/9
f 47/14/9 29/32/9 24/88/9
f 29/32/9 47/14/9 30/33/9
f 55/90/10 50/57/10 65/89/10
f 54/91/10 50/57/10 55/90/10
f 50/57/10 54/91/10 51/59/10
f 28/93/8 65/89/8 27/92/8
f 65/89/8 28/93/8 55/90/8
f 37/75/10 42/94/10 64/73/10
f 42/94/10 37/75/10 39/95/10
f 23/62/3 72/63/3 25/64/3
f 72/63/3 23/62/3 52/61/3
f 26/88/9 74/97/9 73/96/9
f 74/97/9 26/88/9 25/98/9
f 53/77/5 51/78/5 54/76/5
f 63/99/5 51/78/5 53/77/5
f 63/99/5 52/27/5 51/78/5
f 52/27/5 63/99/5 72/29/5
f 70/102/3 50/101/3 48/100/3
f 50/101/3 70/102/3 29/103/3
f 69/86/4 75/104/4 68/84/4
f 75/104/4 69/86/4 76/105/4
f 20/106/8 78/57/8 77/55/8
f 22/93/8 78/57/8 20/106/8
f 56/107/8 78/57/8 22/93/8
f 78/57/8 56/107/8 79/108/8
f 36/111/4 34/110/4 80/109/4
f 34/110/4 36/111/4 35/112/4
f 20/39/5 61/99/5 19/77/5
f 61/99/5 20/39/5 77/41/5
f 38/113/9 80/109/9 40/3/9
f 80/109/9 38/113/9 36/111/9
f 75/66/3 82/67/3 81/68/3
f 82/67/3 75/66/3 76/65/3
f 2/44/11 84/22/7 83/45/11
f 84/22/7 2/44/11 8/21/7
f 85/116/5 5/115/5 6/114/5
f 86/117/5 5/115/5 85/116/5
f 86/117/5 7/118/2 5/115/5
f 7/118/2 86/117/5 17/119/2
f 45/122/12 87/121/12 46/120/12
f 88/123/12 87/121/12 45/122/12
f 89/124/12 87/121/12 88/123/12
f 90/125/12 87/121/12 89/124/12
f 91/126/12 87/121/12 90/125/12
f 18/127/12 87/121/12 91/126/12
f 18/127/12 84/128/12 87/121/12
f 17/7/12 84/128/12 18/127/12
f 17/7/12 83/129/12 84/128/12
f 83/129/12 17/7/12 41/130/12
f 86/5/12 85/6/12 17/7/12
f 92/131/12 17/7/12 85/6/12
f 41/130/12 17/7/12 92/131/12
f 41/130/12 92/131/12 43/94/12
f 62/101/7 77/102/7 78/103/7
f 77/102/7 62/101/7 61/100/7
f 2/134/11 41/133/6 1/132/6
f 41/133/6 2/134/11 83/135/11
f 82/137/8 66/79/8 81/136/8
f 66/79/8 82/137/8 67/81/8
f 25/98/4 62/32/4 74/97/4
f 72/138/4 62/32/4 25/98/4
f 62/32/4 72/138/4 63/70/4
f 84/22/7 11/51/13 87/50/13
f 11/51/13 84/22/7 8/21/7
f 46/132/5 11/135/13 14/133/5
f 11/135/13 46/132/5 87/134/13
f 15/117/6 89/114/6 16/116/6
f 15/117/6 90/115/6 89/114/6
f 10/119/14 90/115/6 15/117/6
f 90/115/6 10/119/14 91/118/14
f 23/58/10 71/139/10 49/56/10
f 71/139/10 23/58/10 24/140/10
f 78/41/5 74/29/5 62/99/5
f 74/29/5 78/41/5 73/30/5
f 78/57/10 26/140/10 73/141/10
f 79/108/10 26/140/10 78/57/10
f 26/140/10 79/108/10 44/122/10
f 10/143/14 18/21/3 91/142/14
f 18/21/3 10/143/14 9/22/3

usemtl greyLight(Clone)

f 93/144/5 67/41/5 82/39/5
f 93/144/5 82/39/5 76/40/5
f 94/145/5 67/41/5 93/144/5
f 76/40/5 95/146/5 93/144/5
f 94/145/5 57/30/5 67/41/5
f 96/147/5 57/30/5 94/145/5
f 57/30/5 96/147/5 97/148/5
f 97/148/5 59/28/5 57/30/5
f 76/40/5 98/149/5 95/146/5
f 59/28/5 97/148/5 98/149/5
f 69/42/5 98/149/5 76/40/5
f 59/28/5 98/149/5 69/42/5
f 100/144/6 75/39/6 99/146/6
f 101/145/6 75/39/6 100/144/6
f 81/40/6 99/146/6 75/39/6
f 101/145/6 68/41/6 75/39/6
f 66/42/6 99/146/6 81/40/6
f 66/42/6 102/149/6 99/146/6
f 101/145/6 60/30/6 68/41/6
f 103/147/6 60/30/6 101/145/6
f 58/28/6 102/149/6 66/42/6
f 60/30/6 103/147/6 58/28/6
f 58/28/6 104/148/6 102/149/6
f 104/148/6 58/28/6 103/147/6
f 43/133/6 92/114/6 42/28/6
f 105/148/6 42/28/6 92/114/6
f 42/28/6 105/148/6 106/149/6
f 42/28/6 106/149/6 64/42/6
f 64/42/6 106/149/6 107/146/6
f 64/42/6 107/146/6 32/40/6
f 32/40/6 107/146/6 34/39/6
f 108/144/6 34/39/6 107/146/6
f 109/145/6 34/39/6 108/144/6
f 109/145/6 80/41/6 34/39/6
f 109/145/6 40/30/6 80/41/6
f 110/147/6 40/30/6 109/145/6
f 110/147/6 3/132/6 40/30/6
f 3/132/6 110/147/6 4/116/6
f 95/152/16 107/151/15 93/150/15
f 107/151/15 95/152/16 108/153/16
f 107/155/15 94/81/12 93/154/15
f 94/81/12 107/155/15 106/73/12
f 106/73/12 96/156/17 94/81/12
f 96/156/17 106/73/12 105/131/17
f 111/148/5 12/133/5 13/114/5
f 12/133/5 111/148/5 47/28/5
f 47/28/5 111/148/5 112/149/5
f 47/28/5 112/149/5 30/42/5
f 30/42/5 112/149/5 31/40/5
f 31/40/5 112/149/5 113/146/5
f 31/40/5 113/146/5 114/144/5
f 114/144/5 56/39/5 31/40/5
f 114/144/5 79/41/5 56/39/5
f 115/145/5 79/41/5 114/144/5
f 115/145/5 44/30/5 79/41/5
f 116/147/5 44/30/5 115/145/5
f 44/30/5 116/147/5 88/116/5
f 45/132/5 44/30/5 88/116/5
f 110/4/18 98/86/1 97/157/18
f 98/86/1 110/4/18 109/109/1
f 109/109/1 95/158/16 98/86/1
f 95/158/16 109/109/1 108/159/16
f 101/84/1 113/160/16 112/33/1
f 113/160/16 101/84/1 100/161/16
f 99/163/15 115/108/12 114/162/15
f 115/108/12 99/163/15 102/79/12
f 103/164/18 112/33/1 111/15/18
f 112/33/1 103/164/18 101/84/1
f 113/167/16 99/166/15 114/165/15
f 99/166/15 113/167/16 100/168/16
f 4/43/7 110/151/18 6/19/7
f 97/150/18 6/19/7 110/151/18
f 6/19/7 97/150/18 96/152/17
f 6/19/7 96/152/17 85/20/7
f 85/20/7 96/152/17 92/46/7
f 92/46/7 96/152/17 105/153/17
f 13/53/7 103/166/18 111/165/18
f 103/166/18 13/53/7 16/142/7
f 103/166/18 16/142/7 104/168/17
f 104/168/17 16/142/7 89/143/7
f 104/168/17 89/143/7 116/167/17
f 116/167/17 89/143/7 88/49/7
f 102/79/12 116/123/17 115/108/12
f 116/123/17 102/79/12 104/169/17

