# Created by Kenney (www.kenney.nl)

mtllib Silverware.mtl

g cookingFork

v 2.316136 0 19.16047
v 2.316136 0.02 19.16047
v 2.341336 0 19.11499
v 2.341336 0.02 19.11499
v 2.094426 0.0178 19.15046
v 2.094426 0.0022 19.15046
v 2.094426 0.0178 19.07951
v 2.094426 0.0022 19.07951
v 2.316136 0.02 19.0695
v 2.316136 0 19.0695
v 2.094426 0.01 19.14647
v 1.890486 0.01 19.0975
v 1.890486 0.01 19.13247
v 2.094426 0.01 19.0835
v 1.855655 0.01933292 19.06254
v 1.855655 0.01933292 19.16744
v 1.658664 0.07211657 19.13247
v 1.693495 0.06278366 19.16744
v 1.855655 0.01933292 19.13247
v 1.855655 0.01933292 19.0975
v 1.693495 0.06278366 19.06254
v 1.658664 0.07211657 19.0975

vn 0.7901589 0 0.8580627
vn 1 0 0
vn -1 0 0
vn -0.03222078 0 -1.399273
vn -0.03222078 0 1.399273
vn -0.009922389 -0.9999508 0
vn -0.006944668 -0.9999759 0
vn 0.7901589 0 -0.8580627
vn -0.009922389 0.9999508 0
vn -0.006944668 0.9999759 0
vn 0 1 0
vn 0 -1 0
vn -0.258819 -0.9659258 0
vn 0.258819 0.9659258 0

vt -19.16047 0
vt -19.16047 0.02
vt -19.11499 0
vt -19.11499 0.02
vt 19.15046 0.0178
vt 19.15046 0.0022
vt 19.07951 0.0178
vt 19.07951 0.0022
vt -2.094426 0.0178
vt -2.094426 0.0022
vt -2.316136 0.02
vt -2.316136 0
vt 2.094426 0.0178
vt 2.316136 0.02
vt 2.094426 0.0022
vt 2.316136 0
vt -2.094426 -19.07951
vt -2.094426 -19.15046
vt -2.316136 -19.0695
vt -2.316136 -19.16047
vt -19.0695 0
vt -19.0695 0.02
vt -2.094426 19.15046
vt -2.094426 19.07951
vt -2.316136 19.16047
vt -2.316136 19.0695
vt -2.341336 19.11499
vt -2.341336 -19.11499
vt -2.094426 -19.14647
vt -1.890486 -19.0975
vt -1.890486 -19.13247
vt -2.094426 -19.0835
vt -1.890486 19.13247
vt -1.890486 19.0975
vt -2.094426 19.14647
vt -2.094426 19.0835
vt -1.855655 -19.06254
vt -1.855655 -19.16744
vt -1.658664 -19.13247
vt -1.693495 -19.16744
vt -1.855655 -19.13247
vt 1.855655 0.01933292
vt -1.693495 -19.06254
vt -1.855655 -19.0975
vt -1.658664 -19.0975
vt -1.855655 19.06254
vt -1.855655 19.16744
vt -1.693495 19.16744
vt -1.658664 19.13247
vt -1.855655 19.13247
vt -1.855655 19.0975
vt -1.693495 19.06254
vt -1.658664 19.0975

usemtl brown(Clone)

f 3/3/2 2/2/1 1/1/1
f 2/2/1 3/3/2 4/4/2
f 7/7/3 6/6/3 5/5/3
f 6/6/3 7/7/3 8/8/3
f 9/11/4 8/10/4 7/9/4
f 8/10/4 9/11/4 10/12/4
f 6/15/5 2/14/5 5/13/5
f 2/14/5 6/15/5 1/16/5
f 10/19/7 6/18/6 8/17/6
f 6/18/6 10/19/7 1/20/7
f 10/21/8 4/4/2 3/3/2
f 4/4/2 10/21/8 9/22/8
f 2/25/10 7/24/9 5/23/9
f 7/24/9 2/25/10 9/26/10
f 2/25/10 4/27/11 9/26/10
f 10/19/7 3/28/12 1/20/7

usemtl brown(Clone)

f 13/31/12 12/30/12 11/29/12
f 14/32/12 11/29/12 12/30/12
f 11/35/11 12/34/11 13/33/11
f 12/34/11 11/35/11 14/36/11
f 12/30/13 13/31/13 15/37/13
f 16/38/13 15/37/13 13/31/13
f 18/40/13 17/39/13 16/38/13
f 17/39/13 19/41/13 16/38/13
f 19/42/13 20/42/13 16/42/13
f 20/42/13 15/42/13 16/42/13
f 15/37/13 20/44/13 21/43/13
f 22/45/13 21/43/13 20/44/13
f 15/46/14 13/33/14 12/34/14
f 13/33/14 15/46/14 16/47/14
f 16/47/14 17/49/14 18/48/14
f 16/47/14 19/50/14 17/49/14
f 16/42/14 20/42/14 19/42/14
f 16/42/14 15/42/14 20/42/14
f 21/52/14 20/51/14 15/46/14
f 20/51/14 21/52/14 22/53/14

g cookingKnife

v 1.620852 0.01 16.95724
v 1.664625 0.01 17.05624
v 1.56425 0.01 16.95724
v 1.680409 0.01 17.01598
v 2.077125 0.01 17.04772
v 2.077125 0.01 17.08924
v 2.077125 0.01 16.99324
v 2.088125 0.01 16.95724
v 2.088125 0.01 16.99324
v 2.088125 0.02 16.99902
v 2.088125 0 16.99902
v 2.088125 0.02 16.95146
v 2.088125 0 16.95146
v 2.363125 0 16.98301
v 2.363125 0.02 16.98301
v 2.363125 0 16.93626
v 2.363125 0.02 16.93626
v 2.268473 0.02 17.02282
v 2.336712 0.02 17.01757
v 2.268473 0 17.02282
v 2.336712 0 17.01757

vn -1.1 0 0
vn 1.034256 0 0.4086408
vn 1.1 0 0
vn -0.02748905 0 1.199625
vn 0.5012153 0 1.068191
vn -0.1320805 0 1.191318
vn -0.05567808 0 -1.198462

vt -1.620852 16.95724
vt -1.664625 17.05624
vt -1.56425 16.95724
vt -1.680409 17.01598
vt -2.077125 17.04772
vt -2.077125 17.08924
vt -1.56425 -16.95724
vt -1.664625 -17.05624
vt -1.620852 -16.95724
vt -1.680409 -17.01598
vt -2.077125 -17.04772
vt -2.077125 -17.08924
vt -2.077125 16.99324
vt -2.088125 16.95724
vt -2.088125 16.99324
vt -2.088125 -16.99324
vt -2.088125 -16.95724
vt -2.077125 -16.99324
vt 16.99902 0.02
vt 16.99902 0
vt 16.95146 0.02
vt 16.95146 0
vt -16.98301 0
vt -16.98301 0.02
vt -16.93626 0
vt -16.93626 0.02
vt 2.268473 0.02
vt 2.336712 0.02
vt 2.268473 0
vt 2.336712 0
vt -17.01757 0
vt -17.01757 0.02
vt -2.088125 -16.99902
vt -2.268473 -17.02282
vt -2.088125 -16.95146
vt -2.336712 -17.01757
vt -2.363125 -16.93626
vt -2.363125 -16.98301
vt -2.088125 16.99902
vt -2.088125 16.95146
vt -2.268473 17.02282
vt -2.336712 17.01757
vt -2.363125 16.98301
vt -2.363125 16.93626
vt 2.088125 0.02
vt 2.088125 0
vt -2.363125 0.02
vt -2.088125 0.02
vt -2.363125 0
vt -2.088125 0

usemtl white(Clone)

f 25/56/11 24/55/11 23/54/11
f 23/54/11 24/55/11 26/57/11
f 26/57/11 24/55/11 27/58/11
f 28/59/11 27/58/11 24/55/11
f 23/62/12 24/61/12 25/60/12
f 26/63/12 24/61/12 23/62/12
f 27/64/12 24/61/12 26/63/12
f 24/61/12 27/64/12 28/65/12

usemtl greyLight(Clone)

f 31/68/11 30/67/11 29/66/11
f 23/54/11 29/66/11 30/67/11
f 26/57/11 29/66/11 23/54/11
f 27/58/11 29/66/11 26/57/11
f 29/71/12 30/70/12 31/69/12
f 30/70/12 29/71/12 23/62/12
f 23/62/12 29/71/12 26/63/12
f 26/63/12 29/71/12 27/64/12

usemtl brownDark(Clone)

f 34/74/15 33/73/15 32/72/15
f 33/73/15 34/74/15 35/75/15
f 38/78/17 37/77/16 36/76/16
f 37/77/16 38/78/17 39/79/17
f 42/82/18 41/81/19 40/80/18
f 41/81/19 42/82/18 43/83/19
f 36/76/16 41/85/19 43/84/19
f 41/85/19 36/76/16 37/77/16
f 35/88/12 42/87/12 33/86/12
f 35/88/12 43/89/12 42/87/12
f 38/90/12 43/89/12 35/88/12
f 43/89/12 38/90/12 36/91/12
f 40/94/11 34/93/11 32/92/11
f 41/95/11 34/93/11 40/94/11
f 37/96/11 34/93/11 41/95/11
f 34/93/11 37/96/11 39/97/11
f 33/99/20 40/80/18 32/98/20
f 40/80/18 33/99/20 42/82/18
f 38/102/21 34/101/21 39/100/21
f 34/101/21 38/102/21 35/103/21

g utensilSpoon

v 1.816349 0.01 18.057
v 1.775766 0 17.9998
v 1.775766 0 18.0362
v 1.816349 0.01 18.03494
v 1.816349 0.01 18.00106
v 1.816349 0.01 17.979
v 1.734042 0.01 18.096
v 1.73551 0 18.05528
v 1.652392 0 18.03422
v 1.580128 0.01 18.057
v 1.652392 0 18.00178
v 1.73551 0 17.98072
v 1.734042 0.01 17.94
v 1.580128 0.01 17.979
v 2.157551 0.0278 18.05266
v 2.157551 0.0278 17.98334
v 2.306382 0.01 18.05808
v 2.306382 0.01 17.97792
v 2.339793 0.01 18.018

vn 0.4294581 -0.9492928 0.2069244
vn 0.4363725 -0.9491926 -0.1977548
vn 0.4363725 -0.9491926 0.1977548
vn 0.575929 -0.9315585 0
vn 0.4294581 -0.9492928 -0.2069244
vn -0.4363725 0.9491926 -0.1977548
vn -0.4363725 0.9491926 0.1977548
vn -0.4294581 0.9492928 -0.2069244
vn -0.575929 0.9315585 0
vn -0.4294581 0.9492928 0.2069244
vn 0.04192375 -0.9520769 0.396125
vn 0.08083139 -0.9509583 0.3966054
vn -0.08083139 0.9509583 -0.3966054
vn -0.04192375 0.9520769 -0.396125
vn -0.234669 -0.9742063 0.2212819
vn -0.2726359 -0.9788611 0.1436271
vn 0.2726359 0.9788611 -0.1436271
vn 0.234669 0.9742063 -0.2212819
vn -0.234669 -0.9742063 -0.2212819
vn 0.04192375 -0.9520769 -0.396125
vn -0.2726359 -0.9788611 -0.1436271
vn 0.08083139 -0.9509583 -0.3966054
vn 0.2726359 0.9788611 0.1436271
vn -0.04192375 0.9520769 0.396125
vn 0.234669 0.9742063 0.2212819
vn -0.08083139 0.9509583 0.3966054
vn -0.0902674 -0.9983749 0
vn 0.1304494 -0.9966031 0
vn -0.1304494 0.9966031 0
vn 0.0902674 0.9983749 0
vn -0.2124274 -0.9909668 0
vn 0.2124274 0.9909668 0

vt -1.816349 -18.057
vt -1.775766 -17.9998
vt -1.775766 -18.0362
vt -1.816349 -18.03494
vt -1.816349 -18.00106
vt -1.816349 -17.979
vt -1.775766 18.0362
vt -1.775766 17.9998
vt -1.816349 18.057
vt -1.816349 18.03494
vt -1.816349 18.00106
vt -1.816349 17.979
vt -1.734042 -18.096
vt -1.73551 -18.05528
vt -1.73551 18.05528
vt -1.734042 18.096
vt -1.652392 -18.03422
vt -1.580128 -18.057
vt -1.580128 18.057
vt -1.652392 18.03422
vt -1.652392 -18.00178
vt -1.73551 -17.98072
vt -1.652392 18.00178
vt -1.73551 17.98072
vt -1.734042 -17.94
vt -1.580128 -17.979
vt -1.580128 17.979
vt -1.734042 17.94
vt -2.157551 -18.05266
vt -2.157551 -17.98334
vt -2.157551 18.05266
vt -2.157551 17.98334
vt -2.306382 -18.05808
vt -2.306382 -17.97792
vt -2.306382 18.05808
vt -2.306382 17.97792
vt -2.339793 -18.018
vt -2.339793 18.018

usemtl white(Clone)

f 46/106/24 45/105/23 44/104/22
f 44/104/22 45/105/23 47/107/25
f 47/107/25 45/105/23 48/108/25
f 49/109/26 48/108/25 45/105/23
f 44/112/29 45/111/28 46/110/27
f 47/113/30 45/111/28 44/112/29
f 48/114/30 45/111/28 47/113/30
f 45/111/28 48/114/30 49/115/31
f 51/117/33 46/106/24 50/116/32
f 44/104/22 50/116/32 46/106/24
f 50/119/35 46/110/27 51/118/34
f 46/110/27 50/119/35 44/112/29
f 53/121/37 52/120/36 50/116/32
f 51/117/33 50/116/32 52/120/36
f 50/119/35 52/123/39 53/122/38
f 52/123/39 50/119/35 51/118/34
f 52/120/12 54/124/12 51/117/12
f 54/124/12 55/125/12 51/117/12
f 51/117/12 55/125/12 46/106/12
f 45/105/12 46/106/12 55/125/12
f 51/118/11 54/126/11 52/123/11
f 51/118/11 55/127/11 54/126/11
f 46/110/11 55/127/11 51/118/11
f 55/127/11 46/110/11 45/111/11
f 57/129/42 56/128/41 54/124/40
f 55/125/43 54/124/40 56/128/41
f 54/126/46 56/131/45 57/130/44
f 56/131/45 54/126/46 55/127/47
f 53/121/37 57/129/42 52/120/36
f 54/124/40 52/120/36 57/129/42
f 52/123/39 57/130/44 53/122/38
f 57/130/44 52/123/39 54/126/46
f 55/125/43 56/128/41 45/105/23
f 49/109/26 45/105/23 56/128/41
f 45/111/28 56/131/45 55/127/47
f 56/131/45 45/111/28 49/115/31
f 47/107/49 48/108/49 58/132/48
f 59/133/48 58/132/48 48/108/49
f 58/134/51 48/114/50 47/113/50
f 48/114/50 58/134/51 59/135/51
f 58/132/48 59/133/48 60/136/52
f 61/137/52 60/136/52 59/133/48
f 60/138/53 59/135/51 58/134/51
f 59/135/51 60/138/53 61/139/53
f 61/137/52 62/140/12 60/136/52
f 60/138/53 62/141/11 61/139/53

