# Created by Kenney (www.kenney.nl)

mtllib Spear.mtl

g cylinder

v 0.2165064 12 -6.125
v 0.2165064 0 -6.125
v 0.2414815 12 -6.064705
v 0.2414815 0 -6.064705
v 0.25 12 -6
v 0.25 0 -6
v 0.2414815 12 -5.935295
v 0.2414815 0 -5.935295
v 0.2165064 12 -5.875
v 0.2165064 0 -5.875
v 0.1767767 0 -6.176777
v 0.1767767 12 -6.176777
v 0.1767767 12 -5.823223
v 0.1767767 0 -5.823223
v 0.125 0 -5.783494
v 0.125 12 -5.783494
v 0.06470476 0 -5.758519
v 0.06470476 12 -5.758519
v 0 0 -5.75
v 0 12 -5.75
v -0.06470476 0 -5.758519
v -0.06470476 12 -5.758519
v 0.125 12 -6.216506
v 0.125 0 -6.216506
v 0.06470476 12 -6.241481
v 0.06470476 0 -6.241481
v 0 12 -6.25
v 0 0 -6.25
v -0.06470476 12 -6.241481
v -0.06470476 0 -6.241481
v -0.125 0 -5.783494
v -0.125 12 -5.783494
v -0.1767767 0 -5.823223
v -0.1767767 12 -5.823223
v -0.2165064 12 -5.875
v -0.2165064 0 -5.875
v -0.2414815 12 -5.935295
v -0.2414815 0 -5.935295
v -0.25 12 -6
v -0.25 0 -6
v -0.2414815 12 -6.064705
v -0.2414815 0 -6.064705
v -0.2165064 12 -6.125
v -0.2165064 0 -6.125
v -0.1767767 12 -6.176777
v -0.1767767 0 -6.176777
v -0.125 0 -6.216506
v -0.125 12 -6.216506

vn 0.4330127 0 -0.25
vn 0.4829629 0 -0.1294095
vn 0.5 0 0
vn 0.4829629 0 0.1294095
vn 0.4330127 0 0.25
vn 0.3535534 0 -0.3535534
vn 0.3535534 0 0.3535534
vn 0.25 0 0.4330127
vn 0.1294095 0 0.4829629
vn 0 0 0.5
vn -0.1294095 0 0.4829629
vn 0.25 0 -0.4330127
vn 0.1294095 0 -0.4829629
vn 0 0 -0.5
vn -0.1294095 0 -0.4829629
vn -0.25 0 0.4330127
vn -0.3535534 0 0.3535534
vn -0.4330127 0 0.25
vn -0.4829629 0 0.1294095
vn -0.5 0 0
vn -0.4829629 0 -0.1294095
vn -0.4330127 0 -0.25
vn -0.3535534 0 -0.3535534
vn -0.25 0 -0.4330127
vn 0 -12 0
vn 0 12 0

vt 6.125 12
vt 6.125 0
vt 6.064705 12
vt 6.064705 0
vt 6 12
vt 6 0
vt 5.935295 12
vt 5.935295 0
vt 5.875 12
vt 5.875 0
vt 6.176777 0
vt 6.176777 12
vt 5.823223 12
vt 5.823223 0
vt 0.1767767 0
vt 0.125 0
vt 0.1767767 12
vt 0.125 12
vt 0.06470476 0
vt 0.06470476 12
vt 0 0
vt 0 12
vt -0.06470476 0
vt -0.06470476 12
vt -0.1767767 12
vt -0.125 12
vt -0.1767767 0
vt -0.125 0
vt -5.823223 12
vt -5.823223 0
vt -5.875 12
vt -5.875 0
vt -5.935295 12
vt -5.935295 0
vt -6 12
vt -6 0
vt -6.064705 12
vt -6.064705 0
vt -6.125 12
vt -6.125 0
vt -6.176777 12
vt -6.176777 0
vt -0.25 6
vt -0.2414815 6.064705
vt -0.2414815 5.935295
vt -0.2165064 6.125
vt -0.2165064 5.875
vt -0.1767767 6.176777
vt -0.1767767 5.823223
vt -0.125 6.216506
vt -0.125 5.783494
vt -0.06470476 6.241481
vt -0.06470476 5.758519
vt 0 5.75
vt 0 6.25
vt 0.06470476 5.758519
vt 0.06470476 6.241481
vt 0.125 6.216506
vt 0.125 5.783494
vt 0.1767767 6.176777
vt 0.1767767 5.823223
vt 0.2165064 6.125
vt 0.2165064 5.875
vt 0.2414815 6.064705
vt 0.2414815 5.935295
vt 0.25 6
vt -0.25 -6
vt -0.2414815 -5.935295
vt -0.2414815 -6.064705
vt -0.2165064 -6.125
vt -0.2165064 -5.875
vt -0.1767767 -6.176777
vt -0.1767767 -5.823223
vt -0.125 -6.216506
vt -0.125 -5.783494
vt -0.06470476 -6.241481
vt -0.06470476 -5.758519
vt 0 -6.25
vt 0 -5.75
vt 0.06470476 -6.241481
vt 0.06470476 -5.758519
vt 0.125 -6.216506
vt 0.125 -5.783494
vt 0.1767767 -6.176777
vt 0.1767767 -5.823223
vt 0.2165064 -6.125
vt 0.2165064 -5.875
vt 0.2414815 -6.064705
vt 0.2414815 -5.935295
vt 0.25 -6

usemtl custom1(Clone)

f 3/3/2 2/2/1 1/1/1
f 2/2/1 3/3/2 4/4/2
f 5/5/3 4/4/2 3/3/2
f 4/4/2 5/5/3 6/6/3
f 7/7/4 6/6/3 5/5/3
f 6/6/3 7/7/4 8/8/4
f 9/9/5 8/8/4 7/7/4
f 8/8/4 9/9/5 10/10/5
f 11/11/6 1/1/1 2/2/1
f 1/1/1 11/11/6 12/12/6
f 13/13/7 10/10/5 9/9/5
f 10/10/5 13/13/7 14/14/7
f 13/17/7 15/16/8 14/15/7
f 15/16/8 13/17/7 16/18/8
f 16/18/8 17/19/9 15/16/8
f 17/19/9 16/18/8 18/20/9
f 18/20/9 19/21/10 17/19/9
f 19/21/10 18/20/9 20/22/10
f 20/22/10 21/23/11 19/21/10
f 21/23/11 20/22/10 22/24/11
f 11/27/6 23/26/12 12/25/6
f 23/26/12 11/27/6 24/28/12
f 24/28/12 25/24/13 23/26/12
f 25/24/13 24/28/12 26/23/13
f 26/23/13 27/22/14 25/24/13
f 27/22/14 26/23/13 28/21/14
f 28/21/14 29/20/15 27/22/14
f 29/20/15 28/21/14 30/19/15
f 22/24/11 31/28/16 21/23/11
f 31/28/16 22/24/11 32/26/16
f 32/26/16 33/27/17 31/28/16
f 33/27/17 32/26/16 34/25/17
f 35/31/18 33/30/17 34/29/17
f 33/30/17 35/31/18 36/32/18
f 37/33/19 36/32/18 35/31/18
f 36/32/18 37/33/19 38/34/19
f 39/35/20 38/34/19 37/33/19
f 38/34/19 39/35/20 40/36/20
f 41/37/21 40/36/20 39/35/20
f 40/36/20 41/37/21 42/38/21
f 43/39/22 42/38/21 41/37/21
f 42/38/21 43/39/22 44/40/22
f 45/41/23 44/40/22 43/39/22
f 44/40/22 45/41/23 46/42/23
f 45/17/23 47/16/24 46/15/23
f 47/16/24 45/17/23 48/18/24
f 48/18/24 30/19/15 47/16/24
f 30/19/15 48/18/24 29/20/15
f 8/45/25 4/44/25 6/43/25
f 4/44/25 8/45/25 2/46/25
f 2/46/25 8/45/25 10/47/25
f 2/46/25 10/47/25 11/48/25
f 11/48/25 10/47/25 14/49/25
f 11/48/25 14/49/25 24/50/25
f 24/50/25 14/49/25 15/51/25
f 24/50/25 15/51/25 26/52/25
f 26/52/25 15/51/25 17/53/25
f 26/52/25 17/53/25 19/54/25
f 26/52/25 19/54/25 28/55/25
f 28/55/25 19/54/25 21/56/25
f 28/55/25 21/56/25 30/57/25
f 30/57/25 21/56/25 47/58/25
f 47/58/25 21/56/25 31/59/25
f 47/58/25 31/59/25 46/60/25
f 46/60/25 31/59/25 33/61/25
f 46/60/25 33/61/25 44/62/25
f 44/62/25 33/61/25 36/63/25
f 44/62/25 36/63/25 42/64/25
f 42/64/25 36/63/25 38/65/25
f 42/64/25 38/65/25 40/66/25
f 3/69/26 7/68/26 5/67/26
f 7/68/26 3/69/26 1/70/26
f 7/68/26 1/70/26 9/71/26
f 9/71/26 1/70/26 12/72/26
f 9/71/26 12/72/26 13/73/26
f 13/73/26 12/72/26 23/74/26
f 13/73/26 23/74/26 16/75/26
f 16/75/26 23/74/26 25/76/26
f 16/75/26 25/76/26 18/77/26
f 18/77/26 25/76/26 27/78/26
f 18/77/26 27/78/26 20/79/26
f 20/79/26 27/78/26 29/80/26
f 20/79/26 29/80/26 22/81/26
f 22/81/26 29/80/26 48/82/26
f 22/81/26 48/82/26 32/83/26
f 32/83/26 48/82/26 45/84/26
f 32/83/26 45/84/26 34/85/26
f 34/85/26 45/84/26 43/86/26
f 34/85/26 43/86/26 35/87/26
f 35/87/26 43/86/26 41/88/26
f 35/87/26 41/88/26 37/89/26
f 37/89/26 41/88/26 39/90/26

g blade_top

v 0 12.72 -5.7144
v -0.57 12.72 -6
v 0 15.24 -6
v 0 12.72 -6.2856
v 0.57 12.72 -6

vn -1.292873 2.292694 2.580313
vn 1.292873 2.292694 -2.580313
vn 1.292873 2.292694 2.580313
vn -1.292873 2.292694 -2.580313
vn 0 -8.4 0

vt 0 12.72
vt -0.57 12.72
vt 0 15.24
vt 0.57 12.72
vt -0.57 6
vt 0 6.2856
vt 0 5.7144
vt 0.57 6

usemtl metalLight(Clone)

f 51/93/27 50/92/27 49/91/27
f 51/93/28 53/92/28 52/91/28
f 51/93/29 49/91/29 53/94/29
f 51/93/30 52/91/30 50/94/30
f 49/97/31 52/96/31 53/95/31
f 52/96/31 49/97/31 50/98/31

g blade_middle_thin

v 0.38 12.75 -6
v 0 12.75 -6.2856
v 0 12.75 -5.7144
v -0.38 12.75 -6
v 0.38 12 -6
v 0 12 -6.2856
v 0 12 -5.7144
v -0.38 12 -6
v 7.219114E-16 12.375 -6.225624
v 0.3002 12.375 -6
v -0.3002 12.375 -6
v 7.219114E-16 12.375 -5.774376

vn 0 -1.5 0
vn 0 1.5 0
vn 0.8936516 0.1069701 -2.675322
vn -0.8936516 0.1069701 2.675322
vn -0.8936516 0.1069701 -2.675322
vn 0.8936516 0.1069701 2.675322
vn 0.8936516 -0.1069701 -2.675322
vn -0.8936516 -0.1069701 -2.675322
vn -0.8936516 -0.1069701 2.675322
vn 0.8936516 -0.1069701 2.675322

vt -0.38 6
vt 0.38 6
vt 0 -5.7144
vt 0 -6.2856
vt -0.38 -6
vt 0.38 -6
vt -0.38 12
vt -7.219114E-16 12.375
vt -0.3002 12.375
vt 7.219114E-16 12.375
vt 0.38 12
vt 0.3002 12.375
vt 0 12.75
vt -0.38 12.75
vt 0.38 12.75

usemtl metalLight(Clone)

f 56/97/32 55/96/32 54/99/32
f 55/96/32 56/97/32 57/100/32
f 54/103/33 55/102/33 56/101/33
f 57/104/33 56/101/33 55/102/33
f 60/97/32 59/96/32 58/99/32
f 59/96/32 60/97/32 61/100/32
f 62/106/34 58/105/34 59/22/34
f 58/105/34 62/106/34 63/107/34
f 60/22/35 64/107/35 61/105/35
f 64/107/35 60/22/35 65/108/35
f 61/109/36 62/106/36 59/22/36
f 62/106/36 61/109/36 64/110/36
f 63/110/37 60/22/37 58/109/37
f 60/22/37 63/110/37 65/108/37
f 55/111/38 63/107/38 62/106/38
f 63/107/38 55/111/38 54/112/38
f 62/108/35 63/110/35 55/111/35
f 54/113/35 55/111/35 63/110/35
f 64/110/39 55/111/39 62/106/39
f 55/111/39 64/110/39 57/113/39
f 62/108/37 55/111/37 64/107/37
f 57/112/37 64/107/37 55/111/37
f 65/108/40 57/112/40 64/107/40
f 57/112/40 65/108/40 56/111/40
f 64/110/34 57/113/34 65/106/34
f 56/111/34 65/106/34 57/113/34
f 54/113/41 65/108/41 63/110/41
f 65/108/41 54/113/41 56/111/41
f 63/107/36 65/106/36 54/112/36
f 56/111/36 54/112/36 65/106/36

