# Created by Kenney (www.kenney.nl)

mtllib Curtain 2 obj.mtl

v 6 2 1.5
v 6 2 -1.5
v 5 2 1.5
v 5 2 -1.5
v 5 6 -1.5
v 5 6 1.5
v 6 6 -1.5
v 6 6 1.5
v 5 5 1.5
v 5 5 -1.5
v 3 5 1.5
v 3 5 -1.5
v 3 6 -1.5
v 3 6 1.5
v 3 2 1
v 3 2 -1
v 2 2 1
v 2 2 -1
v 2 6 -1
v 2 6 1
v 3 6 -1
v 3 6 1
v 2 5 1
v 2 5 -1
v -3 5 1
v -3 5 -1
v -3 6 -1
v -3 6 1
v -3 4 1.5
v -3 4 -1.5
v -6 4 1.5
v -6 4 -1.5
v -6 6 -1.5
v -6 6 1.5
v -3 6 -1.5
v -3 6 1.5
v 6 5 1.5
v 6 5 -1.5
v 2 4 1
v 2 4 -1
v 1 4 1
v 1 4 -1
v 1 6 -1
v 1 6 1
v 1 5 1
v 1 5 -1
v 5 3 1.5
v 5 3 -1.5
v 4 3 1.5
v 4 3 -1.5
v 4 5 -1.5
v 4 5 1.5
v 4 4 1.5
v 4 4 -1.5
v 3 4 1.5
v 3 4 -1.5
v 1 4 0.5
v 1 4 -0.5
v -1 4 0.5
v -1 4 -0.5
v -1 5 -0.5
v -1 5 0.5
v 1 5 -0.5
v 1 5 0.5
v -1 4 1
v -1 4 -1
v -3 4 1
v -3 4 -1
v -1 5 -1
v -1 5 1
v 4 0 1
v 4 0 -1
v 3 0 1
v 3 0 -1
v 3 4 -1
v 3 4 1
v 4 4 -1
v 4 4 1
v 2 0 0.5
v 2 0 -0.5
v 1 0 0.5
v 1 0 -0.5
v 2 4 -0.5
v 2 4 0.5
v -1 -1 0.5
v -1 -1 -0.5
v -2 -1 0.5
v -2 -1 -0.5
v -2 4 -0.5
v -2 4 0.5
v -2 2 1
v -2 2 -1
v -4 2 1
v -4 2 -1
v -4 4 -1
v -4 4 1
v -2 4 -1
v -2 4 1
v -4 3 1.5
v -4 3 -1.5
v -6 3 1.5
v -6 3 -1.5
v -4 4 -1.5
v -4 4 1.5
v 5 -2 1
v 5 -2 -1
v 4 -2 1
v 4 -2 -1
v 4 3 -1
v 4 3 1
v 5 3 -1
v 5 3 1
v -4 -1 1
v -4 -1 -1
v -5 -1 1
v -5 -1 -1
v -5 3 -1
v -5 3 1
v -4 3 -1
v -4 3 1
v -5 2 1.5
v -5 2 -1.5
v -6 2 1.5
v -6 2 -1.5
v -5 3 -1.5
v -5 3 1.5
v 6 -4 1
v 6 -4 -1
v 5 -4 1
v 5 -4 -1
v 5 2 -1
v 5 2 1
v 6 2 -1
v 6 2 1
v 3 -4 0.5
v 3 -4 -0.5
v 2 -4 0.5
v 2 -4 -0.5
v 2 2 -0.5
v 2 2 0.5
v 3 2 -0.5
v 3 2 0.5
v -2 -5 0.5
v -2 -5 -0.5
v -3 -5 0.5
v -3 -5 -0.5
v -3 2 -0.5
v -3 2 0.5
v -2 2 -0.5
v -2 2 0.5
v -3 1 1
v -3 1 -1
v -4 1 1
v -4 1 -1
v -3 2 -1
v -3 2 1
v -5 -3 1
v -5 -3 -1
v -6 -3 1
v -6 -3 -1
v -6 2 -1
v -6 2 1
v -5 2 -1
v -5 2 1
v -4 -5 0.5
v -4 -5 -0.5
v -4 1 -0.5
v -4 1 0.5
v -3 1 -0.5
v -3 1 0.5
v 4 -5 0.5
v 4 -5 -0.5
v 3 -5 0.5
v 3 -5 -0.5
v 3 0 -0.5
v 3 0 0.5
v 4 0 -0.5
v 4 0 0.5
v -5 -5 0.5
v -5 -5 -0.5
v -5 -1 -0.5
v -5 -1 0.5
v -4 -1 -0.5
v -4 -1 0.5
v 5 -5 0.5
v 5 -5 -0.5
v 4 -2 -0.5
v 4 -2 0.5
v 5 -2 -0.5
v 5 -2 0.5
v -6 -5 0.5
v -6 -5 -0.5
v -6 -3 -0.5
v -6 -3 0.5
v -5 -3 -0.5
v -5 -3 0.5
v 6 -5 0.5
v 6 -5 -0.5
v 5 -4 -0.5
v 5 -4 0.5
v 6 -4 -0.5
v 6 -4 0.5
v 6 -10 0.5
v 6 -10 -0.5
v 4 -10 0.5
v 4 -10 -0.5
v 4 -6 -0.5
v 4 -6 0.5
v 6 -6 -0.5
v 6 -6 0.5
v 4 -7 0.5
v 4 -7 -0.5
v 3 -7 0.5
v 3 -7 -0.5
v 3 -6 -0.5
v 3 -6 0.5
v -3 -7 0.5
v -3 -7 -0.5
v -6 -7 0.5
v -6 -7 -0.5
v -6 -6 -0.5
v -6 -6 0.5
v -3 -6 -0.5
v -3 -6 0.5
v -4 -10 0.5
v -4 -10 -0.5
v -6 -10 0.5
v -6 -10 -0.5
v -4 -7 -0.5
v -4 -7 0.5

vn 0 -1 0
vn -1 0 0
vn 0 0 -1
vn 0 0 1
vn 1 0 0
vn 0 1 0

vt 0 NaN
vt 0 0
vt 0 NaN
vt 0 NaN
vt 0 NaN
vt 0 NaN
vt 0 NaN
vt 0 NaN
vt 0 NaN
vt 0 NaN
vt 0 NaN
vt 0 NaN
vt 0 NaN
vt 0 NaN
vt 0 NaN
vt 0 NaN
vt 0 NaN
vt 0 NaN
vt 0 NaN
vt 0 NaN
vt 0 NaN
vt 0 NaN
vt 0 NaN
vt 0 NaN
vt 0 NaN
vt 0 NaN
vt 0 NaN
vt 0 NaN
vt 0 NaN
vt 0 NaN
vt 0 NaN
vt 0 NaN
vt 0 NaN
vt 0 NaN
vt 0 NaN
vt 0 NaN
vt 0 NaN
vt 0 NaN
vt 0 NaN
vt 0 NaN
vt 0 NaN
vt 0 NaN
vt 0 NaN
vt 0 NaN
vt 0 NaN
vt 0 NaN
vt 0 NaN
vt 0 NaN
vt 0 NaN
vt 0 NaN
vt 0 NaN
vt 0 NaN
vt 0 NaN
vt 0 NaN
vt 0 NaN
vt 0 NaN
vt 0 NaN
vt 0 NaN
vt 0 NaN
vt 0 NaN
vt 0 NaN
vt 0 NaN
vt 0 NaN
vt 0 NaN
vt 0 NaN
vt 0 NaN
vt 0 NaN
vt 0 NaN
vt 0 NaN
vt 0 NaN
vt 0 NaN
vt 0 NaN
vt 0 NaN
vt 0 NaN
vt 0 NaN
vt 0 NaN
vt 0 NaN
vt 0 NaN
vt 0 NaN
vt 0 NaN
vt 0 NaN
vt 0 NaN
vt 0 NaN
vt 0 NaN
vt 0 NaN
vt 0 NaN
vt 0 NaN
vt 0 NaN
vt 0 NaN
vt 0 NaN
vt 0 NaN
vt 0 NaN
vt 0 NaN
vt 0 NaN
vt 0 NaN
vt 0 NaN
vt 0 NaN
vt 0 NaN
vt 0 NaN
vt 0 NaN
vt 0 NaN
vt 0 NaN
vt 0 NaN
vt 0 NaN
vt 0 NaN
vt 0 NaN
vt 0 NaN
vt 0 NaN
vt 0 NaN
vt 0 NaN
vt 0 NaN
vt 0 NaN
vt 0 NaN
vt 0 NaN
vt 0 NaN
vt 0 NaN
vt 0 NaN
vt 0 NaN
vt 0 NaN
vt 0 NaN
vt 0 NaN
vt 0 NaN
vt 0 NaN
vt 0 NaN
vt 0 NaN
vt 0 NaN
vt 0 NaN
vt 0 NaN
vt 0 NaN
vt 0 NaN
vt 0 NaN
vt 0 NaN
vt 0 NaN
vt 0 NaN
vt 0 NaN
vt 0 NaN
vt 0 NaN
vt 0 NaN
vt 0 NaN
vt 0 NaN
vt 0 NaN
vt 0 NaN
vt 0 NaN
vt 0 NaN
vt 0 NaN
vt 0 NaN
vt 0 NaN
vt 0 NaN
vt 0 NaN
vt 0 NaN
vt 0 NaN
vt 0 NaN
vt 0 NaN
vt 0 NaN
vt 0 NaN
vt 0 NaN
vt 0 NaN
vt 0 NaN
vt 0 NaN
vt 0 NaN
vt 0 NaN
vt 0 NaN
vt 0 NaN
vt 0 NaN
vt 0 NaN
vt 0 NaN
vt 0 NaN
vt 0 NaN
vt 0 NaN
vt 0 NaN
vt 0 NaN
vt 0 NaN
vt 0 NaN
vt 0 NaN
vt 0 NaN
vt 0 NaN
vt 0 NaN
vt 0 NaN
vt 0 NaN
vt 0 NaN
vt 0 NaN
vt 0 NaN
vt 0 NaN
vt 0 NaN
vt 0 NaN
vt 0 NaN
vt 0 NaN
vt 0 NaN
vt 0 NaN
vt 0 NaN
vt 0 NaN
vt 0 NaN
vt 0 NaN
vt 0 NaN
vt 0 NaN
vt 0 NaN
vt 0 NaN
vt 0 NaN
vt 0 NaN
vt 0 NaN
vt 0 NaN
vt 0 NaN
vt 0 NaN
vt 0 NaN
vt 0 NaN
vt 0 NaN
vt 0 NaN
vt 0 NaN
vt 0 NaN
vt 0 NaN
vt 0 NaN
vt 0 NaN
vt 0 NaN
vt 0 NaN
vt 0 NaN
vt 0 NaN
vt 0 NaN
vt 0 NaN
vt 0 NaN
vt 0 NaN
vt 0 NaN
vt 0 NaN
vt 0 NaN
vt 0 NaN
vt 0 NaN
vt 0 NaN
vt 0 NaN
vt 0 NaN
vt 0 NaN
vt 0 NaN
vt 0 NaN
vt 0 NaN
vt 0 NaN
vt 0 NaN
vt 0 NaN
vt 0 NaN
vt 0 NaN
vt 0 NaN
vt 0 NaN
vt 0 NaN
vt 0 NaN
vt 0 NaN
vt 0 NaN
vt 0 NaN
vt 0 NaN
vt 0 NaN
vt 0 NaN
vt 0 NaN
vt 0 NaN
vt 0 NaN
vt 0 NaN
vt 0 NaN
vt 0 NaN
vt 0 NaN
vt 0 NaN
vt 0 NaN
vt 0 NaN
vt 0 NaN
vt 0 NaN
vt 0 NaN
vt 0 NaN
vt 0 NaN
vt 0 NaN
vt 0 NaN
vt 0 NaN
vt 0 NaN
vt 0 NaN
vt 0 NaN
vt 0 NaN
vt 0 NaN
vt 0 NaN
vt 0 NaN
vt 0 NaN
vt 0 NaN
vt 0 NaN
vt 0 NaN
vt 0 NaN
vt 0 NaN
vt 0 NaN
vt 0 NaN
vt 0 NaN
vt 0 NaN
vt 0 NaN
vt 0 NaN
vt 0 NaN
vt 0 NaN
vt 0 NaN
vt 0 NaN
vt 0 NaN
vt 0 NaN
vt 0 NaN
vt 0 NaN
vt 0 NaN
vt 0 NaN
vt 0 NaN
vt 0 NaN
vt 0 NaN
vt 0 NaN
vt 0 NaN
vt 0 NaN
vt 0 NaN
vt 0 NaN
vt 0 NaN
vt 0 NaN
vt 0 NaN
vt 0 NaN
vt 0 NaN
vt 0 NaN
vt 0 NaN
vt 0 NaN
vt 0 NaN
vt 0 NaN
vt 0 NaN
vt 0 NaN
vt 0 NaN
vt 0 NaN
vt 0 NaN
vt 0 NaN
vt 0 NaN
vt 0 NaN
vt 0 NaN
vt 0 NaN
vt 0 NaN
vt 0 NaN
vt 0 NaN
vt 0 NaN
vt 0 NaN
vt 0 NaN
vt 0 NaN
vt 0 NaN
vt 0 NaN
vt 0 NaN
vt 0 NaN
vt 0 NaN
vt 0 NaN
vt 0 NaN
vt 0 NaN
vt 0 NaN
vt 0 NaN
vt 0 NaN
vt 0 NaN
vt 0 NaN
vt 0 NaN
vt 0 NaN
vt 0 NaN
vt 0 NaN
vt 0 NaN
vt 0 NaN
vt 0 NaN
vt 0 NaN
vt 0 NaN
vt 0 NaN
vt 0 NaN
vt 0 NaN
vt 0 NaN
vt 0 NaN
vt 0 NaN
vt 0 NaN
vt 0 NaN
vt 0 NaN
vt 0 NaN
vt 0 NaN
vt 0 NaN
vt 0 NaN
vt 0 NaN
vt 0 NaN
vt 0 NaN
vt 0 NaN
vt 0 NaN
vt 0 NaN
vt 0 NaN
vt 0 NaN
vt 0 NaN
vt 0 NaN
vt 0 NaN

usemtl color9

f 3/2/1 2/2/1 1/1/1
f 2/2/1 3/2/1 4/3/1
f 3/2/2 5/2/2 4/4/2
f 5/2/2 3/2/2 6/5/2
f 5/2/3 2/2/3 4/6/3
f 2/2/3 5/2/3 7/7/3
f 8/2/4 3/2/4 1/8/4
f 3/2/4 8/2/4 6/9/4
f 8/2/5 2/2/5 7/10/5
f 2/2/5 8/2/5 1/11/5
f 5/2/6 8/2/6 7/12/6
f 8/2/6 5/2/6 6/13/6
f 11/2/1 10/2/1 9/14/1
f 10/2/1 11/2/1 12/15/1
f 11/2/2 13/2/2 12/16/2
f 13/2/2 11/2/2 14/17/2
f 13/2/3 10/2/3 12/18/3
f 10/2/3 13/2/3 5/2/3
f 6/9/4 11/2/4 9/19/4
f 11/2/4 6/9/4 14/20/4
f 6/2/5 10/2/5 5/21/5
f 10/2/5 6/2/5 9/22/5
f 13/2/6 6/13/6 5/2/6
f 6/13/6 13/2/6 14/23/6
f 17/2/1 16/2/1 15/24/1
f 16/2/1 17/2/1 18/25/1
f 17/2/2 19/2/2 18/26/2
f 19/2/2 17/2/2 20/27/2
f 19/2/3 16/2/3 18/28/3
f 16/2/3 19/2/3 21/29/3
f 22/2/4 17/2/4 15/30/4
f 17/2/4 22/2/4 20/31/4
f 22/2/5 16/2/5 21/32/5
f 16/2/5 22/2/5 15/33/5
f 19/2/6 22/2/6 21/34/6
f 22/2/6 19/2/6 20/35/6
f 25/2/1 24/2/1 23/36/1
f 24/2/1 25/2/1 26/37/1
f 25/2/2 27/2/2 26/38/2
f 27/2/2 25/2/2 28/39/2
f 27/2/3 24/2/3 26/40/3
f 24/2/3 27/2/3 19/2/3
f 20/31/4 25/2/4 23/41/4
f 25/2/4 20/31/4 28/42/4
f 20/2/5 24/2/5 19/43/5
f 24/2/5 20/2/5 23/44/5
f 27/2/6 20/35/6 19/2/6
f 20/35/6 27/2/6 28/45/6
f 31/2/1 30/2/1 29/46/1
f 30/2/1 31/2/1 32/47/1
f 31/2/2 33/2/2 32/48/2
f 33/2/2 31/2/2 34/49/2
f 33/2/3 30/2/3 32/50/3
f 30/2/3 33/2/3 35/51/3
f 36/2/4 31/2/4 29/52/4
f 31/2/4 36/2/4 34/53/4
f 36/2/5 30/2/5 35/54/5
f 30/2/5 36/2/5 29/55/5
f 33/2/6 36/2/6 35/56/6
f 36/2/6 33/2/6 34/57/6
f 11/2/1 38/2/1 37/58/1
f 38/2/1 11/2/1 12/15/1
f 11/2/2 13/2/2 12/16/2
f 13/2/2 11/2/2 14/17/2
f 13/2/3 38/2/3 12/18/3
f 38/2/3 13/2/3 7/7/3
f 8/2/4 11/2/4 37/59/4
f 11/2/4 8/2/4 14/20/4
f 8/2/5 38/2/5 7/10/5
f 38/2/5 8/2/5 37/60/5
f 13/2/6 8/2/6 7/12/6
f 8/2/6 13/2/6 14/23/6
f 41/2/1 40/2/1 39/61/1
f 40/2/1 41/2/1 42/62/1
f 41/2/2 43/2/2 42/63/2
f 43/2/2 41/2/2 44/64/2
f 43/2/3 40/2/3 42/65/3
f 40/2/3 43/2/3 19/2/3
f 20/31/4 41/2/4 39/66/4
f 41/2/4 20/31/4 44/67/4
f 20/2/5 40/2/5 19/43/5
f 40/2/5 20/2/5 39/68/5
f 43/2/6 20/35/6 19/2/6
f 20/35/6 43/2/6 44/69/6
f 25/2/1 46/2/1 45/70/1
f 46/2/1 25/2/1 26/37/1
f 25/2/2 27/2/2 26/38/2
f 27/2/2 25/2/2 28/39/2
f 27/2/3 46/2/3 26/40/3
f 46/2/3 27/2/3 43/2/3
f 44/67/4 25/2/4 45/71/4
f 25/2/4 44/67/4 28/42/4
f 44/2/5 46/2/5 43/72/5
f 46/2/5 44/2/5 45/73/5
f 27/2/6 44/69/6 43/2/6
f 44/69/6 27/2/6 28/45/6
f 49/2/1 48/2/1 47/74/1
f 48/2/1 49/2/1 50/75/1
f 49/2/2 51/2/2 50/76/2
f 51/2/2 49/2/2 52/77/2
f 51/2/3 48/2/3 50/78/3
f 48/2/3 51/2/3 10/2/3
f 9/19/4 49/2/4 47/79/4
f 49/2/4 9/19/4 52/80/4
f 9/22/5 48/2/5 10/2/5
f 48/2/5 9/22/5 47/81/5
f 51/2/6 9/2/6 10/82/6
f 9/2/6 51/2/6 52/83/6
f 55/2/1 54/2/1 53/84/1
f 54/2/1 55/2/1 56/85/1
f 55/2/2 12/16/2 56/86/2
f 12/16/2 55/2/2 11/2/2
f 12/18/3 54/2/3 56/87/3
f 54/2/3 12/18/3 51/2/3
f 52/80/4 55/2/4 53/88/4
f 55/2/4 52/80/4 11/2/4
f 52/2/5 54/2/5 51/89/5
f 54/2/5 52/2/5 53/90/5
f 12/2/6 52/83/6 51/2/6
f 52/83/6 12/2/6 11/91/6
f 59/2/1 58/2/1 57/92/1
f 58/2/1 59/2/1 60/93/1
f 59/2/2 61/2/2 60/94/2
f 61/2/2 59/2/2 62/95/2
f 61/2/3 58/2/3 60/96/3
f 58/2/3 61/2/3 63/97/3
f 64/2/4 59/2/4 57/98/4
f 59/2/4 64/2/4 62/99/4
f 64/2/5 58/2/5 63/100/5
f 58/2/5 64/2/5 57/101/5
f 61/2/6 64/2/6 63/102/6
f 64/2/6 61/2/6 62/103/6
f 67/2/1 66/2/1 65/104/1
f 66/2/1 67/2/1 68/105/1
f 67/2/2 26/38/2 68/106/2
f 26/38/2 67/2/2 25/2/2
f 26/40/3 66/2/3 68/107/3
f 66/2/3 26/40/3 69/108/3
f 70/2/4 67/2/4 65/109/4
f 67/2/4 70/2/4 25/2/4
f 70/2/5 66/2/5 69/110/5
f 66/2/5 70/2/5 65/111/5
f 26/2/6 70/2/6 69/112/6
f 70/2/6 26/2/6 25/113/6
f 73/2/1 72/2/1 71/114/1
f 72/2/1 73/2/1 74/115/1
f 73/2/2 75/2/2 74/116/2
f 75/2/2 73/2/2 76/117/2
f 75/2/3 72/2/3 74/118/3
f 72/2/3 75/2/3 77/119/3
f 78/2/4 73/2/4 71/120/4
f 73/2/4 78/2/4 76/121/4
f 78/2/5 72/2/5 77/122/5
f 72/2/5 78/2/5 71/123/5
f 75/2/6 78/2/6 77/124/6
f 78/2/6 75/2/6 76/125/6
f 81/2/1 80/2/1 79/126/1
f 80/2/1 81/2/1 82/127/1
f 81/2/2 58/2/2 82/128/2
f 58/2/2 81/2/2 57/129/2
f 58/2/3 80/2/3 82/130/3
f 80/2/3 58/2/3 83/131/3
f 84/2/4 81/2/4 79/132/4
f 81/2/4 84/2/4 57/98/4
f 84/2/5 80/2/5 83/133/5
f 80/2/5 84/2/5 79/134/5
f 58/2/6 84/2/6 83/135/6
f 84/2/6 58/2/6 57/136/6
f 87/2/1 86/2/1 85/137/1
f 86/2/1 87/2/1 88/138/1
f 87/2/2 89/2/2 88/139/2
f 89/2/2 87/2/2 90/140/2
f 89/2/3 86/2/3 88/141/3
f 86/2/3 89/2/3 60/96/3
f 59/2/4 87/2/4 85/142/4
f 87/2/4 59/2/4 90/143/4
f 59/2/5 86/2/5 60/144/5
f 86/2/5 59/2/5 85/145/5
f 89/2/6 59/2/6 60/146/6
f 59/2/6 89/2/6 90/147/6
f 93/2/1 92/2/1 91/148/1
f 92/2/1 93/2/1 94/149/1
f 93/2/2 95/2/2 94/150/2
f 95/2/2 93/2/2 96/151/2
f 95/2/3 92/2/3 94/152/3
f 92/2/3 95/2/3 97/153/3
f 98/2/4 93/2/4 91/154/4
f 93/2/4 98/2/4 96/155/4
f 98/2/5 92/2/5 97/156/5
f 92/2/5 98/2/5 91/157/5
f 95/2/6 98/2/6 97/158/6
f 98/2/6 95/2/6 96/159/6
f 101/2/1 100/2/1 99/160/1
f 100/2/1 101/2/1 102/161/1
f 101/2/2 32/48/2 102/162/2
f 32/48/2 101/2/2 31/2/2
f 32/50/3 100/2/3 102/163/3
f 100/2/3 32/50/3 103/164/3
f 104/2/4 101/2/4 99/165/4
f 101/2/4 104/2/4 31/2/4
f 104/2/5 100/2/5 103/166/5
f 100/2/5 104/2/5 99/167/5
f 32/2/6 104/2/6 103/168/6
f 104/2/6 32/2/6 31/169/6
f 107/2/1 106/2/1 105/170/1
f 106/2/1 107/2/1 108/171/1
f 107/2/2 109/2/2 108/172/2
f 109/2/2 107/2/2 110/173/2
f 109/2/3 106/2/3 108/174/3
f 106/2/3 109/2/3 111/175/3
f 112/2/4 107/2/4 105/176/4
f 107/2/4 112/2/4 110/177/4
f 112/2/5 106/2/5 111/178/5
f 106/2/5 112/2/5 105/179/5
f 109/2/6 112/2/6 111/180/6
f 112/2/6 109/2/6 110/181/6
f 115/2/1 114/2/1 113/182/1
f 114/2/1 115/2/1 116/183/1
f 115/2/2 117/2/2 116/184/2
f 117/2/2 115/2/2 118/185/2
f 117/2/3 114/2/3 116/186/3
f 114/2/3 117/2/3 119/187/3
f 120/2/4 115/2/4 113/188/4
f 115/2/4 120/2/4 118/189/4
f 120/2/5 114/2/5 119/190/5
f 114/2/5 120/2/5 113/191/5
f 117/2/6 120/2/6 119/192/6
f 120/2/6 117/2/6 118/193/6
f 123/2/1 122/2/1 121/194/1
f 122/2/1 123/2/1 124/195/1
f 123/2/2 102/162/2 124/196/2
f 102/162/2 123/2/2 101/2/2
f 102/163/3 122/2/3 124/197/3
f 122/2/3 102/163/3 125/198/3
f 126/2/4 123/2/4 121/199/4
f 123/2/4 126/2/4 101/2/4
f 126/2/5 122/2/5 125/200/5
f 122/2/5 126/2/5 121/201/5
f 102/2/6 126/2/6 125/202/6
f 126/2/6 102/2/6 101/203/6
f 129/2/1 128/2/1 127/204/1
f 128/2/1 129/2/1 130/205/1
f 129/2/2 131/2/2 130/206/2
f 131/2/2 129/2/2 132/207/2
f 131/2/3 128/2/3 130/208/3
f 128/2/3 131/2/3 133/209/3
f 134/2/4 129/2/4 127/210/4
f 129/2/4 134/2/4 132/211/4
f 134/2/5 128/2/5 133/212/5
f 128/2/5 134/2/5 127/213/5
f 131/2/6 134/2/6 133/214/6
f 134/2/6 131/2/6 132/215/6
f 137/2/1 136/2/1 135/216/1
f 136/2/1 137/2/1 138/217/1
f 137/2/2 139/2/2 138/218/2
f 139/2/2 137/2/2 140/219/2
f 139/2/3 136/2/3 138/220/3
f 136/2/3 139/2/3 141/221/3
f 142/2/4 137/2/4 135/222/4
f 137/2/4 142/2/4 140/223/4
f 142/2/5 136/2/5 141/224/5
f 136/2/5 142/2/5 135/225/5
f 139/2/6 142/2/6 141/226/6
f 142/2/6 139/2/6 140/227/6
f 145/2/1 144/2/1 143/228/1
f 144/2/1 145/2/1 146/229/1
f 145/2/2 147/2/2 146/230/2
f 147/2/2 145/2/2 148/231/2
f 147/2/3 144/2/3 146/232/3
f 144/2/3 147/2/3 149/233/3
f 150/2/4 145/2/4 143/234/4
f 145/2/4 150/2/4 148/235/4
f 150/2/5 144/2/5 149/236/5
f 144/2/5 150/2/5 143/237/5
f 147/2/6 150/2/6 149/238/6
f 150/2/6 147/2/6 148/239/6
f 153/2/1 152/2/1 151/240/1
f 152/2/1 153/2/1 154/241/1
f 153/2/2 94/150/2 154/242/2
f 94/150/2 153/2/2 93/2/2
f 94/152/3 152/2/3 154/243/3
f 152/2/3 94/152/3 155/244/3
f 156/2/4 153/2/4 151/245/4
f 153/2/4 156/2/4 93/2/4
f 156/2/5 152/2/5 155/246/5
f 152/2/5 156/2/5 151/247/5
f 94/2/6 156/2/6 155/248/6
f 156/2/6 94/2/6 93/249/6
f 159/2/1 158/2/1 157/250/1
f 158/2/1 159/2/1 160/251/1
f 159/2/2 161/2/2 160/252/2
f 161/2/2 159/2/2 162/253/2
f 161/2/3 158/2/3 160/254/3
f 158/2/3 161/2/3 163/255/3
f 164/2/4 159/2/4 157/256/4
f 159/2/4 164/2/4 162/257/4
f 164/2/5 158/2/5 163/258/5
f 158/2/5 164/2/5 157/259/5
f 161/2/6 164/2/6 163/260/6
f 164/2/6 161/2/6 162/261/6
f 165/2/1 146/229/1 145/2/1
f 146/229/1 165/2/1 166/262/1
f 165/2/2 167/2/2 166/263/2
f 167/2/2 165/2/2 168/264/2
f 167/2/3 146/232/3 166/265/3
f 146/232/3 167/2/3 169/266/3
f 170/2/4 165/2/4 145/2/4
f 165/2/4 170/2/4 168/267/4
f 170/2/5 146/2/5 169/268/5
f 146/2/5 170/2/5 145/269/5
f 167/2/6 170/2/6 169/270/6
f 170/2/6 167/2/6 168/271/6
f 173/2/1 172/2/1 171/272/1
f 172/2/1 173/2/1 174/273/1
f 173/2/2 175/2/2 174/274/2
f 175/2/2 173/2/2 176/275/2
f 175/2/3 172/2/3 174/276/3
f 172/2/3 175/2/3 177/277/3
f 178/2/4 173/2/4 171/278/4
f 173/2/4 178/2/4 176/279/4
f 178/2/5 172/2/5 177/280/5
f 172/2/5 178/2/5 171/281/5
f 175/2/6 178/2/6 177/282/6
f 178/2/6 175/2/6 176/283/6
f 179/2/1 166/262/1 165/2/1
f 166/262/1 179/2/1 180/284/1
f 179/2/2 181/2/2 180/285/2
f 181/2/2 179/2/2 182/286/2
f 181/2/3 166/265/3 180/287/3
f 166/265/3 181/2/3 183/288/3
f 184/2/4 179/2/4 165/2/4
f 179/2/4 184/2/4 182/289/4
f 184/2/5 166/2/5 183/290/5
f 166/2/5 184/2/5 165/291/5
f 181/2/6 184/2/6 183/292/6
f 184/2/6 181/2/6 182/293/6
f 171/272/1 186/2/1 185/294/1
f 186/2/1 171/272/1 172/2/1
f 171/2/2 187/2/2 172/295/2
f 187/2/2 171/2/2 188/296/2
f 187/2/3 186/2/3 172/2/3
f 186/2/3 187/2/3 189/297/3
f 190/2/4 171/278/4 185/298/4
f 171/278/4 190/2/4 188/299/4
f 190/2/5 186/2/5 189/300/5
f 186/2/5 190/2/5 185/301/5
f 187/2/6 190/2/6 189/302/6
f 190/2/6 187/2/6 188/303/6
f 191/2/1 180/284/1 179/2/1
f 180/284/1 191/2/1 192/304/1
f 191/2/2 193/2/2 192/305/2
f 193/2/2 191/2/2 194/306/2
f 193/2/3 180/287/3 192/307/3
f 180/287/3 193/2/3 195/308/3
f 196/2/4 191/2/4 179/2/4
f 191/2/4 196/2/4 194/309/4
f 196/2/5 180/2/5 195/310/5
f 180/2/5 196/2/5 179/311/5
f 193/2/6 196/2/6 195/312/6
f 196/2/6 193/2/6 194/313/6
f 185/294/1 198/2/1 197/314/1
f 198/2/1 185/294/1 186/2/1
f 185/2/2 199/2/2 186/315/2
f 199/2/2 185/2/2 200/316/2
f 199/2/3 198/2/3 186/2/3
f 198/2/3 199/2/3 201/317/3
f 202/2/4 185/298/4 197/318/4
f 185/298/4 202/2/4 200/319/4
f 202/2/5 198/2/5 201/320/5
f 198/2/5 202/2/5 197/321/5
f 199/2/6 202/2/6 201/322/6
f 202/2/6 199/2/6 200/323/6
f 205/2/1 204/2/1 203/324/1
f 204/2/1 205/2/1 206/325/1
f 205/2/2 207/2/2 206/326/2
f 207/2/2 205/2/2 208/327/2
f 207/2/3 204/2/3 206/328/3
f 204/2/3 207/2/3 209/329/3
f 210/2/4 205/2/4 203/330/4
f 205/2/4 210/2/4 208/331/4
f 210/2/5 204/2/5 209/332/5
f 204/2/5 210/2/5 203/333/5
f 207/2/6 210/2/6 209/334/6
f 210/2/6 207/2/6 208/335/6
f 213/2/1 212/2/1 211/336/1
f 212/2/1 213/2/1 214/337/1
f 213/2/2 215/2/2 214/338/2
f 215/2/2 213/2/2 216/339/2
f 215/2/3 212/2/3 214/340/3
f 212/2/3 215/2/3 207/2/3
f 208/331/4 213/2/4 211/341/4
f 213/2/4 208/331/4 216/342/4
f 208/2/5 212/2/5 207/343/5
f 212/2/5 208/2/5 211/344/5
f 215/2/6 208/335/6 207/2/6
f 208/335/6 215/2/6 216/345/6
f 219/2/1 218/2/1 217/346/1
f 218/2/1 219/2/1 220/347/1
f 219/2/2 221/2/2 220/348/2
f 221/2/2 219/2/2 222/349/2
f 221/2/3 218/2/3 220/350/3
f 218/2/3 221/2/3 223/351/3
f 224/2/4 219/2/4 217/352/4
f 219/2/4 224/2/4 222/353/4
f 224/2/5 218/2/5 223/354/5
f 218/2/5 224/2/5 217/355/5
f 221/2/6 224/2/6 223/356/6
f 224/2/6 221/2/6 222/357/6
f 227/2/1 226/2/1 225/358/1
f 226/2/1 227/2/1 228/359/1
f 227/2/2 220/348/2 228/360/2
f 220/348/2 227/2/2 219/2/2
f 220/350/3 226/2/3 228/361/3
f 226/2/3 220/350/3 229/362/3
f 230/2/4 227/2/4 225/363/4
f 227/2/4 230/2/4 219/2/4
f 230/2/5 226/2/5 229/364/5
f 226/2/5 230/2/5 225/365/5
f 220/2/6 230/2/6 229/366/6
f 230/2/6 220/2/6 219/367/6
f 25/2/1 46/2/1 45/70/1
f 46/2/1 25/2/1 26/37/1
f 25/2/2 27/2/2 26/38/2
f 27/2/2 25/2/2 28/39/2
f 27/2/3 46/2/3 26/40/3
f 46/2/3 27/2/3 43/2/3
f 44/67/4 25/2/4 45/71/4
f 25/2/4 44/67/4 28/42/4
f 44/2/5 46/2/5 43/72/5
f 46/2/5 44/2/5 45/73/5
f 27/2/6 44/69/6 43/2/6
f 44/69/6 27/2/6 28/45/6
f 55/2/1 54/2/1 53/84/1
f 54/2/1 55/2/1 56/85/1
f 55/2/2 12/16/2 56/86/2
f 12/16/2 55/2/2 11/2/2
f 12/18/3 54/2/3 56/87/3
f 54/2/3 12/18/3 51/2/3
f 52/80/4 55/2/4 53/88/4
f 55/2/4 52/80/4 11/2/4
f 52/2/5 54/2/5 51/89/5
f 54/2/5 52/2/5 53/90/5
f 12/2/6 52/83/6 51/2/6
f 52/83/6 12/2/6 11/91/6
f 213/2/1 212/2/1 211/336/1
f 212/2/1 213/2/1 214/337/1
f 213/2/2 215/2/2 214/338/2
f 215/2/2 213/2/2 216/339/2
f 215/2/3 212/2/3 214/340/3
f 212/2/3 215/2/3 207/2/3
f 208/331/4 213/2/4 211/341/4
f 213/2/4 208/331/4 216/342/4
f 208/2/5 212/2/5 207/343/5
f 212/2/5 208/2/5 211/344/5
f 215/2/6 208/335/6 207/2/6
f 208/335/6 215/2/6 216/345/6

usemtl color5

f 216/2/1 209/2/1 210/368/1
f 209/2/1 216/2/1 215/369/1
f 216/339/2 174/274/2 215/2/2
f 174/274/2 216/339/2 173/2/2
f 174/276/3 209/329/3 215/2/3
f 209/329/3 174/276/3 198/2/3
f 197/318/4 216/342/4 210/2/4
f 216/342/4 197/318/4 173/2/4
f 197/321/5 209/332/5 198/2/5
f 209/332/5 197/321/5 210/2/5
f 174/2/6 197/2/6 198/370/6
f 197/2/6 174/2/6 173/371/6
f 222/2/1 223/2/1 224/372/1
f 223/2/1 222/2/1 221/373/1
f 222/349/2 192/305/2 221/2/2
f 192/305/2 222/349/2 191/2/2
f 192/307/3 223/351/3 221/2/3
f 223/351/3 192/307/3 146/232/3
f 145/2/4 222/353/4 224/2/4
f 222/353/4 145/2/4 191/2/4
f 145/269/5 223/354/5 146/2/5
f 223/354/5 145/269/5 224/2/5
f 192/2/6 145/2/6 146/374/6
f 145/2/6 192/2/6 191/375/6

