# Created by Kenney (www.kenney.nl)

mtllib Plant 1.mtl

v 0 -2 2
v 0 -2 -2
v -1 -2 2
v -1 -2 -2
v -1 2 -2
v -1 2 2
v 0 2 -2
v 0 2 2
v -1 1 2
v -1 1 -2
v -3 1 2
v -3 1 -2
v -3 2 -2
v -3 2 2
v 3 -2 1.5
v 3 -2 -1.5
v 0 -2 1.5
v 0 -2 -1.5
v 0 1 -1.5
v 0 1 1.5
v 3 1 -1.5
v 3 1 1.5
v -1 -4 2.5
v -1 -4 -2.5
v -3 -4 2.5
v -3 -4 -2.5
v -3 1 -2.5
v -3 1 2.5
v -1 1 -2.5
v -1 1 2.5
v 3 -4 2.5
v 3 -4 -2.5
v -1 -2 -2.5
v -1 -2 2.5
v 3 -2 -2.5
v 3 -2 2.5
v 1 -7 1
v 1 -7 -1
v -1 -7 1
v -1 -7 -1
v -1 -4 -1
v -1 -4 1
v 1 -4 -1
v 1 -4 1

vn 0 -1 0
vn -1 0 0
vn 0 0 -1
vn 0 0 1
vn 1 0 0
vn 0 1 0

vt 0 NaN
vt 0 0
vt 0 NaN
vt 0 NaN
vt 0 NaN
vt 0 NaN
vt 0 NaN
vt 0 NaN
vt 0 NaN
vt 0 NaN
vt 0 NaN
vt 0 NaN
vt 0 NaN
vt 0 NaN
vt 0 NaN
vt 0 NaN
vt 0 NaN
vt 0 NaN
vt 0 NaN
vt 0 NaN
vt 0 NaN
vt 0 NaN
vt 0 NaN
vt 0 NaN
vt 0 NaN
vt 0 NaN
vt 0 NaN
vt 0 NaN
vt 0 NaN
vt 0 NaN
vt 0 NaN
vt 0 NaN
vt 0 NaN
vt 0 NaN
vt 0 NaN
vt 0 NaN
vt 0 NaN
vt 0 NaN
vt 0 NaN
vt 0 NaN
vt 0 NaN
vt 0 NaN
vt 0 NaN
vt 0 NaN
vt 0 NaN
vt 0 NaN
vt 0 NaN
vt 0 NaN
vt 0 NaN
vt 0 NaN
vt 0 NaN
vt 0 NaN
vt 0 NaN
vt 0 NaN
vt 0 NaN
vt 0 NaN
vt 0 NaN
vt 0 NaN
vt 0 NaN
vt 0 NaN
vt 0 NaN
vt 0 NaN
vt 0 NaN
vt 0 NaN
vt 0 NaN
vt 0 NaN
vt 0 NaN
vt 0 NaN
vt 0 NaN

usemtl color3

f 3/2/1 2/2/1 1/1/1
f 2/2/1 3/2/1 4/3/1
f 3/2/2 5/2/2 4/4/2
f 5/2/2 3/2/2 6/5/2
f 5/2/3 2/2/3 4/6/3
f 2/2/3 5/2/3 7/7/3
f 8/2/4 3/2/4 1/8/4
f 3/2/4 8/2/4 6/9/4
f 8/2/5 2/2/5 7/10/5
f 2/2/5 8/2/5 1/11/5
f 5/2/6 8/2/6 7/12/6
f 8/2/6 5/2/6 6/13/6
f 11/2/1 10/2/1 9/14/1
f 10/2/1 11/2/1 12/15/1
f 11/2/2 13/2/2 12/16/2
f 13/2/2 11/2/2 14/17/2
f 13/2/3 10/2/3 12/18/3
f 10/2/3 13/2/3 5/2/3
f 6/9/4 11/2/4 9/19/4
f 11/2/4 6/9/4 14/20/4
f 6/2/5 10/2/5 5/21/5
f 10/2/5 6/2/5 9/22/5
f 13/2/6 6/13/6 5/2/6
f 6/13/6 13/2/6 14/23/6
f 17/2/1 16/2/1 15/24/1
f 16/2/1 17/2/1 18/25/1
f 17/2/2 19/2/2 18/26/2
f 19/2/2 17/2/2 20/27/2
f 19/2/3 16/2/3 18/28/3
f 16/2/3 19/2/3 21/29/3
f 22/2/4 17/2/4 15/30/4
f 17/2/4 22/2/4 20/31/4
f 22/2/5 16/2/5 21/32/5
f 16/2/5 22/2/5 15/33/5
f 19/2/6 22/2/6 21/34/6
f 22/2/6 19/2/6 20/35/6
f 25/2/1 24/2/1 23/36/1
f 24/2/1 25/2/1 26/37/1
f 25/2/2 27/2/2 26/38/2
f 27/2/2 25/2/2 28/39/2
f 27/2/3 24/2/3 26/40/3
f 24/2/3 27/2/3 29/41/3
f 30/2/4 25/2/4 23/42/4
f 25/2/4 30/2/4 28/43/4
f 30/2/5 24/2/5 29/44/5
f 24/2/5 30/2/5 23/45/5
f 27/2/6 30/2/6 29/46/6
f 30/2/6 27/2/6 28/47/6
f 23/36/1 32/2/1 31/48/1
f 32/2/1 23/36/1 24/2/1
f 23/2/2 33/2/2 24/49/2
f 33/2/2 23/2/2 34/50/2
f 33/2/3 32/2/3 24/2/3
f 32/2/3 33/2/3 35/51/3
f 36/2/4 23/42/4 31/52/4
f 23/42/4 36/2/4 34/53/4
f 36/2/5 32/2/5 35/54/5
f 32/2/5 36/2/5 31/55/5
f 33/2/6 36/2/6 35/56/6
f 36/2/6 33/2/6 34/57/6
f 11/2/1 10/2/1 9/14/1
f 10/2/1 11/2/1 12/15/1
f 11/2/2 13/2/2 12/16/2
f 13/2/2 11/2/2 14/17/2
f 13/2/3 10/2/3 12/18/3
f 10/2/3 13/2/3 5/2/3
f 6/9/4 11/2/4 9/19/4
f 11/2/4 6/9/4 14/20/4
f 6/2/5 10/2/5 5/21/5
f 10/2/5 6/2/5 9/22/5
f 13/2/6 6/13/6 5/2/6
f 6/13/6 13/2/6 14/23/6

usemtl color21

f 39/2/1 38/2/1 37/58/1
f 38/2/1 39/2/1 40/59/1
f 39/2/2 41/2/2 40/60/2
f 41/2/2 39/2/2 42/61/2
f 41/2/3 38/2/3 40/62/3
f 38/2/3 41/2/3 43/63/3
f 44/2/4 39/2/4 37/64/4
f 39/2/4 44/2/4 42/65/4
f 44/2/5 38/2/5 43/66/5
f 38/2/5 44/2/5 37/67/5
f 41/2/6 44/2/6 43/68/6
f 44/2/6 41/2/6 42/69/6

