# Created by Kenney (www.kenney.nl)

mtllib pot1.mtl

v 3 -2 2
v 2 -2 2
v 2.965926 -1.741181 2
v 2 -1 2
v 2.866025 -1.5 2
v 2.707107 -1.292893 2
v 2.5 -1.133975 2
v 2.258819 -1.034074 2
v 3 -2 -2
v 2.258819 -1.034074 -2
v 2 -1 -2
v 2.5 -1.133975 -2
v 2.707107 -1.292893 -2
v 2.866025 -1.5 -2
v 2.965926 -1.741181 -2
v 2 -2 -2
v 2.258819 -6.965926 2
v 2.258819 -6.965926 -2
v 2 -7 2
v 2.5 -6.866025 2
v 2.5 -6.866025 -2
v 2.707107 -6.707107 2
v 2.707107 -6.707107 -2
v 2.866025 -6.5 2
v 2 -7 -2
v 2 -6 -2
v 2 -6 2
v 3 -6 -2
v 3 -6 2
v 2.866025 -6.5 -2
v 2.965926 -6.258819 -2
v 2.965926 -6.258819 2
v 2 -1 1
v 1 -1 1
v 1.965926 -0.741181 1
v 1 0 1
v 1.866025 -0.5 1
v 1.707107 -0.2928932 1
v 1.5 -0.1339746 1
v 1.258819 -0.03407419 1
v 2 -1 -1
v 1.258819 -0.03407419 -1
v 1 0 -1
v 1.5 -0.1339746 -1
v 1.707107 -0.2928932 -1
v 1.866025 -0.5 -1
v 1.965926 -0.741181 -1
v 1 -1 -1
v -1.707107 -0.2928932 -1
v -1.866025 -0.5 -1
v -1 0 -1
v -1.5 -0.1339746 -1
v -1.258819 -0.03407419 -1
v -1.965926 -0.741181 -1
v -2 -1 -1
v -1 -1 -1
v -1.866025 -0.5 1
v -1 0 1
v -1.965926 -0.741181 1
v -1.707107 -0.2928932 1
v -1.5 -0.1339746 1
v -1.258819 -0.03407419 1
v -1 -1 1
v -2 -1 1
v -2.707107 -1.292893 -2
v -2.866025 -1.5 -2
v -2 -1 -2
v -2.5 -1.133975 -2
v -2.258819 -1.034074 -2
v -2.965926 -1.741181 -2
v -3 -2 -2
v -2 -2 -2
v -2.866025 -1.5 2
v -2 -1 2
v -2.965926 -1.741181 2
v -2.707107 -1.292893 2
v -2.5 -1.133975 2
v -2.258819 -1.034074 2
v -2 -2 2
v -3 -2 2
v -3 -6 2
v -2.965926 -6.258819 2
v -3 -6 -2
v -2 -7 2
v -2 -7 -2
v -2.258819 -6.965926 2
v -2.258819 -6.965926 -2
v -2.5 -6.866025 2
v -2.5 -6.866025 -2
v -2.707107 -6.707107 2
v -2.707107 -6.707107 -2
v -2.866025 -6.5 -2
v -2 -6 -2
v -2 -6 2
v -2.965926 -6.258819 -2
v -2.866025 -6.5 2
v 2 0 1.5
v 2 0 -1.5
v 1 0 1.5
v 1 0 -1.5
v 1 1 -1.5
v 1 1 1.5
v 2 1 -1.5
v 2 1 1.5
v 1 0 2
v 1 0 -2
v -1 0 2
v -1 0 -2
v -1 1 -2
v -1 1 2
v 1 1 -2
v 1 1 2
v -1 0 1.5
v -1 0 -1.5
v -2 0 1.5
v -2 0 -1.5
v -2 1 -1.5
v -2 1 1.5
v -1 1 -1.5
v -1 1 1.5
v 1 -1 1.5
v 1 -1 -1.5
v -1 -1 1.5
v -1 -1 -1.5
v 2 -7 2.5
v 2 -7 -2.5
v -2 -7 2.5
v -2 -7 -2.5
v -2 -1 -2.5
v -2 -1 2.5
v 2 -1 -2.5
v 2 -1 2.5
v 3 -6 2.5
v 3 -6 -2.5
v 2 -6 2.5
v 2 -6 -2.5
v 2 -2 -2.5
v 2 -2 2.5
v 3 -2 -2.5
v 3 -2 2.5
v -2 -6 2.5
v -2 -6 -2.5
v -3 -6 2.5
v -3 -6 -2.5
v -3 -2 -2.5
v -3 -2 2.5
v -2 -2 -2.5
v -2 -2 2.5

vn 0 0 1
vn 0.9914449 0.1305262 0
vn 0.9659259 0.2588191 0
vn 0.2588191 0.9659258 0
vn 0.1305262 0.9914449 0
vn 0.5 0.8660254 0
vn 0.7071068 0.7071068 0
vn 0.8660254 0.5 0
vn 0 0 -1
vn 0 -1 0
vn -1 0 0
vn 0.2588191 -0.9659259 0
vn 0.1305262 -0.9914449 0
vn 0.5 -0.8660254 0
vn 0.7071068 -0.7071068 0
vn 0.8660254 -0.5 0
vn 0 1 0
vn 0.9914449 -0.1305262 0
vn 0.9659259 -0.2588191 0
vn -0.2588191 0.9659259 0
vn -0.5 0.8660254 0
vn 1 0 0
vn -0.1305262 0.9914449 0
vn -0.7071068 0.7071068 0
vn -0.8660254 0.5 0
vn -0.9914449 0.1305262 0
vn -0.9659259 0.2588191 0
vn -0.9914449 -0.1305262 0
vn -0.9659259 -0.2588191 0
vn -0.1305262 -0.9914449 0
vn -0.2588191 -0.9659259 0
vn -0.5 -0.8660254 0
vn -0.7071068 -0.7071068 0
vn -0.8660254 -0.5 0

vt 0 0
vt NaN 0
vt NaN 0
vt NaN 0
vt NaN 0
vt NaN 0
vt NaN 0
vt NaN 0
vt NaN 0
vt NaN 0
vt NaN 0
vt NaN 0
vt NaN 0
vt NaN 0
vt NaN 0
vt NaN 0
vt NaN 0
vt NaN 0
vt NaN 0
vt NaN 0
vt NaN 0
vt NaN 0
vt NaN 0
vt NaN 0
vt NaN 0
vt NaN 0
vt NaN 0
vt NaN 0
vt NaN 0
vt NaN 0
vt NaN 0
vt 0 NaN
vt 0 NaN
vt 0 NaN
vt 0 NaN
vt 0 NaN
vt 0 NaN
vt 0 NaN
vt 0 NaN
vt 0 NaN
vt 0 NaN
vt 0 NaN
vt 0 NaN
vt 0 NaN
vt 0 NaN
vt 0 NaN
vt 0 NaN
vt 0 NaN
vt 0 NaN
vt 0 NaN
vt 0 NaN
vt 0 NaN
vt 0 NaN
vt 0 NaN
vt 0 NaN
vt 0 NaN
vt 0 NaN
vt 0 NaN
vt 0 NaN
vt 0 NaN
vt 0 NaN
vt 0 NaN
vt 0 NaN
vt 0 NaN
vt 0 NaN
vt 0 NaN
vt 0 NaN
vt 0 NaN
vt 0 NaN
vt 0 NaN
vt 0 NaN
vt NaN 0
vt NaN 0
vt NaN 0
vt NaN 0
vt NaN 0
vt NaN 0
vt NaN 0
vt NaN 0
vt NaN 0
vt NaN 0
vt 0 NaN
vt 0 NaN
vt 0 NaN
vt 0 NaN
vt 0 NaN
vt 0 NaN
vt 0 NaN
vt 0 NaN
vt 0 NaN
vt 0 NaN
vt 0 NaN
vt 0 NaN
vt 0 NaN
vt 0 NaN
vt 0 NaN
vt 0 NaN
vt 0 NaN
vt 0 NaN
vt 0 NaN
vt 0 NaN
vt 0 NaN
vt 0 NaN
vt 0 NaN
vt 0 NaN
vt 0 NaN
vt 0 NaN
vt 0 NaN
vt 0 NaN
vt 0 NaN
vt 0 NaN
vt 0 NaN
vt 0 NaN
vt 0 NaN
vt 0 NaN
vt 0 NaN
vt 0 NaN
vt 0 NaN
vt 0 NaN
vt 0 NaN
vt 0 NaN
vt 0 NaN
vt 0 NaN
vt 0 NaN
vt 0 NaN
vt 0 NaN
vt 0 NaN
vt 0 NaN
vt 0 NaN
vt 0 NaN
vt 0 NaN
vt 0 NaN
vt 0 NaN
vt 0 NaN
vt 0 NaN
vt 0 NaN
vt 0 NaN
vt 0 NaN
vt 0 NaN
vt 0 NaN
vt 0 NaN
vt 0 NaN
vt 0 NaN
vt 0 NaN
vt 0 NaN
vt 0 NaN
vt 0 NaN
vt 0 NaN
vt 0 NaN
vt 0 NaN
vt 0 NaN
vt 0 NaN
vt 0 NaN
vt 0 NaN
vt 0 NaN
vt 0 NaN
vt 0 NaN
vt 0 NaN
vt 0 NaN
vt 0 NaN
vt 0 NaN
vt 0 NaN
vt 0 NaN

usemtl color2

f 3/1/1 2/2/1 1/1/1
f 2/2/1 3/1/1 4/1/1
f 4/1/1 3/1/1 5/1/1
f 4/1/1 5/1/1 6/1/1
f 4/1/1 6/1/1 7/1/1
f 4/1/1 7/1/1 8/1/1
f 9/1/2 3/3/3 1/1/2
f 11/1/5 8/4/4 10/1/4
f 10/1/4 7/5/6 12/1/6
f 12/1/6 6/6/7 13/1/7
f 6/6/7 14/7/8 13/1/7
f 6/6/7 12/1/6 7/5/6
f 7/5/6 10/1/4 8/4/4
f 8/4/4 11/1/5 4/1/5
f 16/1/9 15/8/9 9/1/9
f 15/8/9 16/1/9 11/1/9
f 15/8/9 11/1/9 14/1/9
f 14/1/9 11/1/9 13/1/9
f 13/1/9 11/1/9 12/1/9
f 12/1/9 11/1/9 10/1/9
f 2/1/10 9/9/10 1/1/10
f 9/9/10 2/1/10 16/1/10
f 2/1/11 11/10/11 16/1/11
f 11/10/11 2/1/11 4/1/11
f 3/3/3 9/1/2 15/1/3
f 15/1/3 5/11/8 3/3/3
f 14/7/8 6/6/7 5/11/8
f 5/11/8 15/1/3 14/7/8
f 19/1/13 18/12/12 17/1/12
f 17/1/12 21/13/14 20/1/14
f 20/1/14 23/14/15 22/1/15
f 23/14/15 24/15/16 22/1/15
f 23/14/15 20/1/14 21/13/14
f 21/13/14 17/1/12 18/12/12
f 18/12/12 19/1/13 25/1/13
f 19/1/11 26/16/11 25/1/11
f 26/16/11 19/1/11 27/1/11
f 26/1/17 29/17/17 28/1/17
f 29/17/17 26/1/17 27/1/17
f 26/1/9 18/18/9 25/1/9
f 18/18/9 26/1/9 21/1/9
f 21/1/9 26/1/9 23/1/9
f 23/1/9 26/1/9 30/1/9
f 30/1/9 26/1/9 31/1/9
f 31/1/9 26/1/9 28/1/9
f 17/1/1 27/19/1 19/1/1
f 27/19/1 17/1/1 20/1/1
f 27/19/1 20/1/1 22/1/1
f 27/19/1 22/1/1 24/1/1
f 27/19/1 24/1/1 32/1/1
f 27/19/1 32/1/1 29/1/1
f 29/1/18 31/20/19 28/1/18
f 32/1/19 30/21/16 31/20/19
f 31/20/19 29/1/18 32/1/19
f 30/21/16 32/1/19 24/15/16
f 24/15/16 23/14/15 30/21/16
f 35/1/1 34/22/1 33/1/1
f 34/22/1 35/1/1 36/1/1
f 36/1/1 35/1/1 37/1/1
f 36/1/1 37/1/1 38/1/1
f 36/1/1 38/1/1 39/1/1
f 36/1/1 39/1/1 40/1/1
f 41/1/2 35/23/3 33/1/2
f 43/1/5 40/24/4 42/1/4
f 42/1/4 39/25/6 44/1/6
f 44/1/6 38/26/7 45/1/7
f 38/26/7 46/27/8 45/1/7
f 38/26/7 44/1/6 39/25/6
f 39/25/6 42/1/4 40/24/4
f 40/24/4 43/1/5 36/1/5
f 48/1/9 47/28/9 41/1/9
f 47/28/9 48/1/9 43/1/9
f 47/28/9 43/1/9 46/1/9
f 46/1/9 43/1/9 45/1/9
f 45/1/9 43/1/9 44/1/9
f 44/1/9 43/1/9 42/1/9
f 34/1/10 41/29/10 33/1/10
f 41/29/10 34/1/10 48/1/10
f 34/1/11 43/30/11 48/1/11
f 43/30/11 34/1/11 36/1/11
f 35/23/3 41/1/2 47/1/3
f 47/1/3 37/31/8 35/23/3
f 46/27/8 38/26/7 37/31/8
f 37/31/8 47/1/3 46/27/8
f 51/1/9 50/1/9 49/32/9
f 51/1/9 49/32/9 52/33/9
f 51/1/9 52/33/9 53/34/9
f 51/1/9 54/1/9 50/1/9
f 54/1/9 56/1/9 55/35/9
f 56/1/9 54/1/9 51/1/9
f 59/1/1 58/1/1 57/36/1
f 57/36/1 58/1/1 60/37/1
f 60/37/1 58/1/1 61/38/1
f 61/38/1 58/1/1 62/39/1
f 58/1/1 64/1/1 63/40/1
f 64/1/1 58/1/1 59/1/1
f 52/1/21 62/1/20 53/41/20
f 62/1/20 52/1/21 61/42/21
f 58/1/22 56/1/22 51/43/22
f 56/1/22 58/1/22 63/44/22
f 53/41/20 58/1/23 51/45/23
f 58/1/23 53/41/20 62/1/20
f 64/1/10 56/1/10 63/46/10
f 56/1/10 64/1/10 55/47/10
f 49/1/24 61/42/21 52/1/21
f 61/42/21 49/1/24 60/48/24
f 57/1/25 49/1/24 50/49/25
f 49/1/24 57/1/25 60/48/24
f 64/1/26 54/1/27 55/50/26
f 54/1/27 64/1/26 59/51/27
f 59/51/27 50/49/25 54/1/27
f 50/49/25 59/51/27 57/1/25
f 67/1/9 66/1/9 65/52/9
f 67/1/9 65/52/9 68/53/9
f 67/1/9 68/53/9 69/54/9
f 67/1/9 70/1/9 66/1/9
f 70/1/9 72/1/9 71/55/9
f 72/1/9 70/1/9 67/1/9
f 75/1/1 74/1/1 73/56/1
f 73/56/1 74/1/1 76/57/1
f 76/57/1 74/1/1 77/58/1
f 77/58/1 74/1/1 78/59/1
f 74/1/1 80/1/1 79/60/1
f 80/1/1 74/1/1 75/1/1
f 68/1/21 78/1/20 69/61/20
f 78/1/20 68/1/21 77/62/21
f 74/1/22 72/1/22 67/63/22
f 72/1/22 74/1/22 79/64/22
f 69/61/20 74/1/23 67/65/23
f 74/1/23 69/61/20 78/1/20
f 80/1/10 72/1/10 79/66/10
f 72/1/10 80/1/10 71/67/10
f 65/1/24 77/62/21 68/1/21
f 77/62/21 65/1/24 76/68/24
f 73/1/25 65/1/24 66/69/25
f 65/1/24 73/1/25 76/68/24
f 80/1/26 70/1/27 71/70/26
f 70/1/27 80/1/26 75/71/27
f 75/71/27 66/69/25 70/1/27
f 66/69/25 75/71/27 73/1/25
f 83/1/28 82/72/29 81/1/28
f 86/1/31 85/73/30 84/1/30
f 88/1/32 87/74/31 86/1/31
f 90/1/33 89/75/32 88/1/32
f 90/1/33 92/76/34 91/1/33
f 89/75/32 90/1/33 91/1/33
f 87/74/31 88/1/32 89/75/32
f 85/73/30 86/1/31 87/74/31
f 83/1/17 94/77/17 93/1/17
f 94/77/17 83/1/17 81/1/17
f 94/1/22 85/78/22 93/1/22
f 85/78/22 94/1/22 84/1/22
f 87/1/9 93/79/9 85/1/9
f 93/79/9 87/1/9 89/1/9
f 93/79/9 89/1/9 91/1/9
f 93/79/9 91/1/9 92/1/9
f 93/79/9 92/1/9 95/1/9
f 93/79/9 95/1/9 83/1/9
f 94/1/1 86/80/1 84/1/1
f 86/80/1 94/1/1 88/1/1
f 88/1/1 94/1/1 90/1/1
f 90/1/1 94/1/1 96/1/1
f 96/1/1 94/1/1 82/1/1
f 82/1/1 94/1/1 81/1/1
f 96/1/34 95/81/29 92/76/34
f 92/76/34 90/1/33 96/1/34
f 95/81/29 96/1/34 82/72/29
f 82/72/29 83/1/28 95/81/29
f 99/1/10 98/1/10 97/82/10
f 98/1/10 99/1/10 100/83/10
f 99/1/11 101/1/11 100/84/11
f 101/1/11 99/1/11 102/85/11
f 101/1/9 98/1/9 100/86/9
f 98/1/9 101/1/9 103/87/9
f 104/1/1 99/1/1 97/88/1
f 99/1/1 104/1/1 102/89/1
f 104/1/22 98/1/22 103/90/22
f 98/1/22 104/1/22 97/91/22
f 101/1/17 104/1/17 103/92/17
f 104/1/17 101/1/17 102/93/17
f 107/1/10 106/1/10 105/94/10
f 106/1/10 107/1/10 108/95/10
f 107/1/11 109/1/11 108/96/11
f 109/1/11 107/1/11 110/97/11
f 109/1/9 106/1/9 108/98/9
f 106/1/9 109/1/9 111/99/9
f 112/1/1 107/1/1 105/100/1
f 107/1/1 112/1/1 110/101/1
f 112/1/22 106/1/22 111/102/22
f 106/1/22 112/1/22 105/103/22
f 109/1/17 112/1/17 111/104/17
f 112/1/17 109/1/17 110/105/17
f 115/1/10 114/1/10 113/106/10
f 114/1/10 115/1/10 116/107/10
f 115/1/11 117/1/11 116/108/11
f 117/1/11 115/1/11 118/109/11
f 117/1/9 114/1/9 116/110/9
f 114/1/9 117/1/9 119/111/9
f 120/1/1 115/1/1 113/112/1
f 115/1/1 120/1/1 118/113/1
f 120/1/22 114/1/22 119/114/22
f 114/1/22 120/1/22 113/115/22
f 117/1/17 120/1/17 119/116/17
f 120/1/17 117/1/17 118/117/17
f 123/1/10 122/1/10 121/118/10
f 122/1/10 123/1/10 124/119/10
f 123/1/11 114/1/11 124/120/11
f 114/1/11 123/1/11 113/121/11
f 114/1/9 122/1/9 124/122/9
f 122/1/9 114/1/9 100/86/9
f 99/1/1 123/1/1 121/123/1
f 123/1/1 99/1/1 113/112/1
f 99/1/22 122/1/22 100/124/22
f 122/1/22 99/1/22 121/125/22
f 114/1/17 99/1/17 100/126/17
f 99/1/17 114/1/17 113/127/17
f 127/1/10 126/1/10 125/128/10
f 126/1/10 127/1/10 128/129/10
f 127/1/11 129/1/11 128/130/11
f 129/1/11 127/1/11 130/131/11
f 129/1/9 126/1/9 128/132/9
f 126/1/9 129/1/9 131/133/9
f 132/1/1 127/1/1 125/134/1
f 127/1/1 132/1/1 130/135/1
f 132/1/22 126/1/22 131/136/22
f 126/1/22 132/1/22 125/137/22
f 129/1/17 132/1/17 131/138/17
f 132/1/17 129/1/17 130/139/17
f 135/1/10 134/1/10 133/140/10
f 134/1/10 135/1/10 136/141/10
f 135/1/11 137/1/11 136/142/11
f 137/1/11 135/1/11 138/143/11
f 137/1/9 134/1/9 136/144/9
f 134/1/9 137/1/9 139/145/9
f 140/1/1 135/1/1 133/146/1
f 135/1/1 140/1/1 138/147/1
f 140/1/22 134/1/22 139/148/22
f 134/1/22 140/1/22 133/149/22
f 137/1/17 140/1/17 139/150/17
f 140/1/17 137/1/17 138/151/17
f 143/1/10 142/1/10 141/152/10
f 142/1/10 143/1/10 144/153/10
f 143/1/11 145/1/11 144/154/11
f 145/1/11 143/1/11 146/155/11
f 145/1/9 142/1/9 144/156/9
f 142/1/9 145/1/9 147/157/9
f 148/1/1 143/1/1 141/158/1
f 143/1/1 148/1/1 146/159/1
f 148/1/22 142/1/22 147/160/22
f 142/1/22 148/1/22 141/161/22
f 145/1/17 148/1/17 147/162/17
f 148/1/17 145/1/17 146/163/17

