# Created by Kenney (www.kenney.nl)

mtllib Tree Bush.mtl

v 1 4 1.5
v 1 4 -1.5
v -1 4 1.5
v -1 4 -1.5
v -1 6 -1.5
v -1 6 1.5
v 1 6 -1.5
v 1 6 1.5
v 2 4 1
v 2 4 -1
v 1 4 1
v 1 4 -1
v 1 5 -1
v 1 5 1
v 2 5 -1
v 2 5 1
v -1 4 1
v -1 4 -1
v -2 4 1
v -2 4 -1
v -2 5 -1
v -2 5 1
v -1 5 -1
v -1 5 1
v 2 2 1.5
v 2 2 -1.5
v 1 2 1.5
v 1 2 -1.5
v 2 4 -1.5
v 2 4 1.5
v 1 -3 2
v 1 -3 -2
v -1 -3 2
v -1 -3 -2
v -1 4 -2
v -1 4 2
v 1 4 -2
v 1 4 2
v -1 2 1.5
v -1 2 -1.5
v -2 2 1.5
v -2 2 -1.5
v -2 4 -1.5
v -2 4 1.5
v 3 2 1
v 3 2 -1
v 2 2 1
v 2 2 -1
v 2 3 -1
v 2 3 1
v 3 3 -1
v 3 3 1
v -2 2 1
v -2 2 -1
v -3 2 1
v -3 2 -1
v -3 3 -1
v -3 3 1
v -2 3 -1
v -2 3 1
v 3 -1 1.5
v 3 -1 -1.5
v 2 -1 1.5
v 2 -1 -1.5
v 3 2 -1.5
v 3 2 1.5
v 2 -1 2
v 2 -1 -2
v 1 -1 2
v 1 -1 -2
v 1 2 -2
v 1 2 2
v 2 2 -2
v 2 2 2
v -1 -1 2
v -1 -1 -2
v -2 -1 2
v -2 -1 -2
v -2 2 -2
v -2 2 2
v -1 2 -2
v -1 2 2
v -2 -1 1.5
v -2 -1 -1.5
v -3 -1 1.5
v -3 -1 -1.5
v -3 2 -1.5
v -3 2 1.5
v 3 -2 1
v 3 -2 -1
v 2 -2 1
v 2 -2 -1
v 2 -1 -1
v 2 -1 1
v 3 -1 -1
v 3 -1 1
v 2 -3 1.5
v 2 -3 -1.5
v 1 -3 1.5
v 1 -3 -1.5
v 1 -1 -1.5
v 1 -1 1.5
v -1 -3 1.5
v -1 -3 -1.5
v -2 -3 1.5
v -2 -3 -1.5
v -1 -1 -1.5
v -1 -1 1.5
v -2 -2 1
v -2 -2 -1
v -3 -2 1
v -3 -2 -1
v -3 -1 -1
v -3 -1 1
v -2 -1 -1
v -2 -1 1
v 2 -4 1
v 2 -4 -1
v 1 -4 1
v 1 -4 -1
v 1 -3 -1
v 1 -3 1
v 2 -3 -1
v 2 -3 1
v 1 -4 1.5
v 1 -4 -1.5
v -1 -4 1.5
v -1 -4 -1.5
v -1 -4 1
v -1 -4 -1
v -2 -4 1
v -2 -4 -1
v -2 -3 -1
v -2 -3 1
v -1 -3 -1
v -1 -3 1
v 1 -7 1
v 1 -7 -1
v -1 -7 1
v -1 -7 -1

vn 0 -1 0
vn -1 0 0
vn 0 0 -1
vn 0 0 1
vn 1 0 0
vn 0 1 0

vt 0 NaN
vt 0 0
vt 0 NaN
vt 0 NaN
vt 0 NaN
vt 0 NaN
vt 0 NaN
vt 0 NaN
vt 0 NaN
vt 0 NaN
vt 0 NaN
vt 0 NaN
vt 0 NaN
vt 0 NaN
vt 0 NaN
vt 0 NaN
vt 0 NaN
vt 0 NaN
vt 0 NaN
vt 0 NaN
vt 0 NaN
vt 0 NaN
vt 0 NaN
vt 0 NaN
vt 0 NaN
vt 0 NaN
vt 0 NaN
vt 0 NaN
vt 0 NaN
vt 0 NaN
vt 0 NaN
vt 0 NaN
vt 0 NaN
vt 0 NaN
vt 0 NaN
vt 0 NaN
vt 0 NaN
vt 0 NaN
vt 0 NaN
vt 0 NaN
vt 0 NaN
vt 0 NaN
vt 0 NaN
vt 0 NaN
vt 0 NaN
vt 0 NaN
vt 0 NaN
vt 0 NaN
vt 0 NaN
vt 0 NaN
vt 0 NaN
vt 0 NaN
vt 0 NaN
vt 0 NaN
vt 0 NaN
vt 0 NaN
vt 0 NaN
vt 0 NaN
vt 0 NaN
vt 0 NaN
vt 0 NaN
vt 0 NaN
vt 0 NaN
vt 0 NaN
vt 0 NaN
vt 0 NaN
vt 0 NaN
vt 0 NaN
vt 0 NaN
vt 0 NaN
vt 0 NaN
vt 0 NaN
vt 0 NaN
vt 0 NaN
vt 0 NaN
vt 0 NaN
vt 0 NaN
vt 0 NaN
vt 0 NaN
vt 0 NaN
vt 0 NaN
vt 0 NaN
vt 0 NaN
vt 0 NaN
vt 0 NaN
vt 0 NaN
vt 0 NaN
vt 0 NaN
vt 0 NaN
vt 0 NaN
vt 0 NaN
vt 0 NaN
vt 0 NaN
vt 0 NaN
vt 0 NaN
vt 0 NaN
vt 0 NaN
vt 0 NaN
vt 0 NaN
vt 0 NaN
vt 0 NaN
vt 0 NaN
vt 0 NaN
vt 0 NaN
vt 0 NaN
vt 0 NaN
vt 0 NaN
vt 0 NaN
vt 0 NaN
vt 0 NaN
vt 0 NaN
vt 0 NaN
vt 0 NaN
vt 0 NaN
vt 0 NaN
vt 0 NaN
vt 0 NaN
vt 0 NaN
vt 0 NaN
vt 0 NaN
vt 0 NaN
vt 0 NaN
vt 0 NaN
vt 0 NaN
vt 0 NaN
vt 0 NaN
vt 0 NaN
vt 0 NaN
vt 0 NaN
vt 0 NaN
vt 0 NaN
vt 0 NaN
vt 0 NaN
vt 0 NaN
vt 0 NaN
vt 0 NaN
vt 0 NaN
vt 0 NaN
vt 0 NaN
vt 0 NaN
vt 0 NaN
vt 0 NaN
vt 0 NaN
vt 0 NaN
vt 0 NaN
vt 0 NaN
vt 0 NaN
vt 0 NaN
vt 0 NaN
vt 0 NaN
vt 0 NaN
vt 0 NaN
vt 0 NaN
vt 0 NaN
vt 0 NaN
vt 0 NaN
vt 0 NaN
vt 0 NaN
vt 0 NaN
vt 0 NaN
vt 0 NaN
vt 0 NaN
vt 0 NaN
vt 0 NaN
vt 0 NaN
vt 0 NaN
vt 0 NaN
vt 0 NaN
vt 0 NaN
vt 0 NaN
vt 0 NaN
vt 0 NaN
vt 0 NaN
vt 0 NaN
vt 0 NaN
vt 0 NaN
vt 0 NaN
vt 0 NaN
vt 0 NaN
vt 0 NaN
vt 0 NaN
vt 0 NaN
vt 0 NaN
vt 0 NaN
vt 0 NaN
vt 0 NaN
vt 0 NaN
vt 0 NaN
vt 0 NaN
vt 0 NaN
vt 0 NaN
vt 0 NaN
vt 0 NaN
vt 0 NaN
vt 0 NaN
vt 0 NaN
vt 0 NaN
vt 0 NaN
vt 0 NaN
vt 0 NaN
vt 0 NaN
vt 0 NaN
vt 0 NaN
vt 0 NaN
vt 0 NaN
vt 0 NaN
vt 0 NaN
vt 0 NaN
vt 0 NaN
vt 0 NaN
vt 0 NaN
vt 0 NaN
vt 0 NaN
vt 0 NaN
vt 0 NaN
vt 0 NaN
vt 0 NaN
vt 0 NaN
vt 0 NaN
vt 0 NaN
vt 0 NaN
vt 0 NaN
vt 0 NaN
vt 0 NaN
vt 0 NaN
vt 0 NaN
vt 0 NaN
vt 0 NaN
vt 0 NaN
vt 0 NaN
vt 0 NaN

usemtl color3

f 3/2/1 2/2/1 1/1/1
f 2/2/1 3/2/1 4/3/1
f 3/2/2 5/2/2 4/4/2
f 5/2/2 3/2/2 6/5/2
f 5/2/3 2/2/3 4/6/3
f 2/2/3 5/2/3 7/7/3
f 8/2/4 3/2/4 1/8/4
f 3/2/4 8/2/4 6/9/4
f 8/2/5 2/2/5 7/10/5
f 2/2/5 8/2/5 1/11/5
f 5/2/6 8/2/6 7/12/6
f 8/2/6 5/2/6 6/13/6
f 11/2/1 10/2/1 9/14/1
f 10/2/1 11/2/1 12/15/1
f 11/2/2 13/2/2 12/16/2
f 13/2/2 11/2/2 14/17/2
f 13/2/3 10/2/3 12/18/3
f 10/2/3 13/2/3 15/19/3
f 16/2/4 11/2/4 9/20/4
f 11/2/4 16/2/4 14/21/4
f 16/2/5 10/2/5 15/22/5
f 10/2/5 16/2/5 9/23/5
f 13/2/6 16/2/6 15/24/6
f 16/2/6 13/2/6 14/25/6
f 19/2/1 18/2/1 17/26/1
f 18/2/1 19/2/1 20/27/1
f 19/2/2 21/2/2 20/28/2
f 21/2/2 19/2/2 22/29/2
f 21/2/3 18/2/3 20/30/3
f 18/2/3 21/2/3 23/31/3
f 24/2/4 19/2/4 17/32/4
f 19/2/4 24/2/4 22/33/4
f 24/2/5 18/2/5 23/34/5
f 18/2/5 24/2/5 17/35/5
f 21/2/6 24/2/6 23/36/6
f 24/2/6 21/2/6 22/37/6
f 27/2/1 26/2/1 25/38/1
f 26/2/1 27/2/1 28/39/1
f 27/2/2 2/2/2 28/40/2
f 2/2/2 27/2/2 1/41/2
f 2/2/3 26/2/3 28/42/3
f 26/2/3 2/2/3 29/43/3
f 30/2/4 27/2/4 25/44/4
f 27/2/4 30/2/4 1/8/4
f 30/2/5 26/2/5 29/45/5
f 26/2/5 30/2/5 25/46/5
f 2/2/6 30/2/6 29/47/6
f 30/2/6 2/2/6 1/48/6
f 33/2/1 32/2/1 31/49/1
f 32/2/1 33/2/1 34/50/1
f 33/2/2 35/2/2 34/51/2
f 35/2/2 33/2/2 36/52/2
f 35/2/3 32/2/3 34/53/3
f 32/2/3 35/2/3 37/54/3
f 38/2/4 33/2/4 31/55/4
f 33/2/4 38/2/4 36/56/4
f 38/2/5 32/2/5 37/57/5
f 32/2/5 38/2/5 31/58/5
f 35/2/6 38/2/6 37/59/6
f 38/2/6 35/2/6 36/60/6
f 41/2/1 40/2/1 39/61/1
f 40/2/1 41/2/1 42/62/1
f 41/2/2 43/2/2 42/63/2
f 43/2/2 41/2/2 44/64/2
f 43/2/3 40/2/3 42/65/3
f 40/2/3 43/2/3 4/6/3
f 3/2/4 41/2/4 39/66/4
f 41/2/4 3/2/4 44/67/4
f 3/2/5 40/2/5 4/68/5
f 40/2/5 3/2/5 39/69/5
f 43/2/6 3/2/6 4/70/6
f 3/2/6 43/2/6 44/71/6
f 47/2/1 46/2/1 45/72/1
f 46/2/1 47/2/1 48/73/1
f 47/2/2 49/2/2 48/74/2
f 49/2/2 47/2/2 50/75/2
f 49/2/3 46/2/3 48/76/3
f 46/2/3 49/2/3 51/77/3
f 52/2/4 47/2/4 45/78/4
f 47/2/4 52/2/4 50/79/4
f 52/2/5 46/2/5 51/80/5
f 46/2/5 52/2/5 45/81/5
f 49/2/6 52/2/6 51/82/6
f 52/2/6 49/2/6 50/83/6
f 55/2/1 54/2/1 53/84/1
f 54/2/1 55/2/1 56/85/1
f 55/2/2 57/2/2 56/86/2
f 57/2/2 55/2/2 58/87/2
f 57/2/3 54/2/3 56/88/3
f 54/2/3 57/2/3 59/89/3
f 60/2/4 55/2/4 53/90/4
f 55/2/4 60/2/4 58/91/4
f 60/2/5 54/2/5 59/92/5
f 54/2/5 60/2/5 53/93/5
f 57/2/6 60/2/6 59/94/6
f 60/2/6 57/2/6 58/95/6
f 63/2/1 62/2/1 61/96/1
f 62/2/1 63/2/1 64/97/1
f 63/2/2 26/2/2 64/98/2
f 26/2/2 63/2/2 25/99/2
f 26/2/3 62/2/3 64/100/3
f 62/2/3 26/2/3 65/101/3
f 66/2/4 63/2/4 61/102/4
f 63/2/4 66/2/4 25/44/4
f 66/2/5 62/2/5 65/103/5
f 62/2/5 66/2/5 61/104/5
f 26/2/6 66/2/6 65/105/6
f 66/2/6 26/2/6 25/106/6
f 69/2/1 68/2/1 67/107/1
f 68/2/1 69/2/1 70/108/1
f 69/2/2 71/2/2 70/109/2
f 71/2/2 69/2/2 72/110/2
f 71/2/3 68/2/3 70/111/3
f 68/2/3 71/2/3 73/112/3
f 74/2/4 69/2/4 67/113/4
f 69/2/4 74/2/4 72/114/4
f 74/2/5 68/2/5 73/115/5
f 68/2/5 74/2/5 67/116/5
f 71/2/6 74/2/6 73/117/6
f 74/2/6 71/2/6 72/118/6
f 77/2/1 76/2/1 75/119/1
f 76/2/1 77/2/1 78/120/1
f 77/2/2 79/2/2 78/121/2
f 79/2/2 77/2/2 80/122/2
f 79/2/3 76/2/3 78/123/3
f 76/2/3 79/2/3 81/124/3
f 82/2/4 77/2/4 75/125/4
f 77/2/4 82/2/4 80/126/4
f 82/2/5 76/2/5 81/127/5
f 76/2/5 82/2/5 75/128/5
f 79/2/6 82/2/6 81/129/6
f 82/2/6 79/2/6 80/130/6
f 85/2/1 84/2/1 83/131/1
f 84/2/1 85/2/1 86/132/1
f 85/2/2 87/2/2 86/133/2
f 87/2/2 85/2/2 88/134/2
f 87/2/3 84/2/3 86/135/3
f 84/2/3 87/2/3 42/65/3
f 41/2/4 85/2/4 83/136/4
f 85/2/4 41/2/4 88/137/4
f 41/2/5 84/2/5 42/138/5
f 84/2/5 41/2/5 83/139/5
f 87/2/6 41/2/6 42/140/6
f 41/2/6 87/2/6 88/141/6
f 91/2/1 90/2/1 89/142/1
f 90/2/1 91/2/1 92/143/1
f 91/2/2 93/2/2 92/144/2
f 93/2/2 91/2/2 94/145/2
f 93/2/3 90/2/3 92/146/3
f 90/2/3 93/2/3 95/147/3
f 96/2/4 91/2/4 89/148/4
f 91/2/4 96/2/4 94/149/4
f 96/2/5 90/2/5 95/150/5
f 90/2/5 96/2/5 89/151/5
f 93/2/6 96/2/6 95/152/6
f 96/2/6 93/2/6 94/153/6
f 99/2/1 98/2/1 97/154/1
f 98/2/1 99/2/1 100/155/1
f 99/2/2 101/2/2 100/156/2
f 101/2/2 99/2/2 102/157/2
f 101/2/3 98/2/3 100/158/3
f 98/2/3 101/2/3 64/100/3
f 63/2/4 99/2/4 97/159/4
f 99/2/4 63/2/4 102/160/4
f 63/2/5 98/2/5 64/161/5
f 98/2/5 63/2/5 97/162/5
f 101/2/6 63/2/6 64/163/6
f 63/2/6 101/2/6 102/164/6
f 105/2/1 104/2/1 103/165/1
f 104/2/1 105/2/1 106/166/1
f 105/2/2 84/2/2 106/167/2
f 84/2/2 105/2/2 83/168/2
f 84/2/3 104/2/3 106/169/3
f 104/2/3 84/2/3 107/170/3
f 108/2/4 105/2/4 103/171/4
f 105/2/4 108/2/4 83/136/4
f 108/2/5 104/2/5 107/172/5
f 104/2/5 108/2/5 103/173/5
f 84/2/6 108/2/6 107/174/6
f 108/2/6 84/2/6 83/175/6
f 111/2/1 110/2/1 109/176/1
f 110/2/1 111/2/1 112/177/1
f 111/2/2 113/2/2 112/178/2
f 113/2/2 111/2/2 114/179/2
f 113/2/3 110/2/3 112/180/3
f 110/2/3 113/2/3 115/181/3
f 116/2/4 111/2/4 109/182/4
f 111/2/4 116/2/4 114/183/4
f 116/2/5 110/2/5 115/184/5
f 110/2/5 116/2/5 109/185/5
f 113/2/6 116/2/6 115/186/6
f 116/2/6 113/2/6 114/187/6
f 119/2/1 118/2/1 117/188/1
f 118/2/1 119/2/1 120/189/1
f 119/2/2 121/2/2 120/190/2
f 121/2/2 119/2/2 122/191/2
f 121/2/3 118/2/3 120/192/3
f 118/2/3 121/2/3 123/193/3
f 124/2/4 119/2/4 117/194/4
f 119/2/4 124/2/4 122/195/4
f 124/2/5 118/2/5 123/196/5
f 118/2/5 124/2/5 117/197/5
f 121/2/6 124/2/6 123/198/6
f 124/2/6 121/2/6 122/199/6
f 127/2/1 126/2/1 125/200/1
f 126/2/1 127/2/1 128/201/1
f 127/2/2 104/2/2 128/202/2
f 104/2/2 127/2/2 103/203/2
f 104/2/3 126/2/3 128/204/3
f 126/2/3 104/2/3 100/158/3
f 99/2/4 127/2/4 125/205/4
f 127/2/4 99/2/4 103/171/4
f 99/2/5 126/2/5 100/206/5
f 126/2/5 99/2/5 125/207/5
f 104/2/6 99/2/6 100/208/6
f 99/2/6 104/2/6 103/209/6
f 131/2/1 130/2/1 129/210/1
f 130/2/1 131/2/1 132/211/1
f 131/2/2 133/2/2 132/212/2
f 133/2/2 131/2/2 134/213/2
f 133/2/3 130/2/3 132/214/3
f 130/2/3 133/2/3 135/215/3
f 136/2/4 131/2/4 129/216/4
f 131/2/4 136/2/4 134/217/4
f 136/2/5 130/2/5 135/218/5
f 130/2/5 136/2/5 129/219/5
f 133/2/6 136/2/6 135/220/6
f 136/2/6 133/2/6 134/221/6

usemtl color21

f 139/2/1 138/2/1 137/222/1
f 138/2/1 139/2/1 140/223/1
f 139/2/2 130/2/2 140/224/2
f 130/2/2 139/2/2 129/225/2
f 130/2/3 138/2/3 140/226/3
f 138/2/3 130/2/3 120/192/3
f 119/2/4 139/2/4 137/227/4
f 139/2/4 119/2/4 129/216/4
f 119/2/5 138/2/5 120/228/5
f 138/2/5 119/2/5 137/229/5
f 130/2/6 119/2/6 120/230/6
f 119/2/6 130/2/6 129/231/6

