# Created by Kenney (www.kenney.nl)

mtllib RamRod.mtl

g mergedBlocks

v 0.3174007 0.4492999 -0.2771997
v 0.3174007 0.4505008 -0.2743006
v 0.3174007 0.4505008 -0.2800989
v 0.3174007 0.4534 -0.2812997
v 0.3174007 0.4534 -0.2730998
v 0.3174007 0.4562991 -0.2800989
v 0.3174007 0.4562991 -0.2743006
v 0.3174007 0.4575 -0.2771997
v 0.1573998 0.4505008 -0.2800989
v 0.1573998 0.4493 -0.2771997
v 0.1573998 0.4562992 -0.2800989
v 0.1573998 0.4534 -0.2812997
v 0.1573998 0.4505008 -0.2743006
v 0.1573998 0.4575 -0.2771997
v 0.1573998 0.4562992 -0.2743006
v 0.1573998 0.4534 -0.2730998

vn 1 -1.192093E-07 0
vn -1.101349E-07 -0.9238786 -0.3826858
vn 4.561914E-08 0.3826811 -0.9238805
vn -1.101349E-07 -0.9238786 0.3826858
vn 1.101349E-07 0.9238786 -0.3826858
vn 1.101349E-07 0.9238786 0.3826858
vn -4.561914E-08 -0.3826811 0.9238805
vn -4.561914E-08 -0.3826811 -0.9238805
vn -1 1.192093E-07 0
vn 4.561914E-08 0.3826811 0.9238805

vt 0.3174007 0.4492999
vt 0.3174007 0.4505008
vt 0.2812997 0.4534
vt 0.2800989 0.4505008
vt 0.2743006 0.4505008
vt 0.2730998 0.4534
vt 0.2800989 0.4562991
vt 0.2743006 0.4562991
vt 0.3174007 0.4575
vt 0.3174007 0.4562991
vt -0.3174007 0.2800989
vt -0.1573998 0.2800989
vt -0.3174007 0.2771997
vt -0.1573998 0.2771997
vt -0.1573998 0.4562992
vt -0.1573998 0.4534
vt -0.3174007 0.4562991
vt -0.3174007 0.4534
vt -0.3174007 0.2743006
vt -0.1573998 0.2743006
vt -0.1573998 -0.2800989
vt -0.3174007 -0.2800989
vt -0.1573998 -0.2771997
vt -0.3174007 -0.2771997
vt -0.1573998 -0.2743006
vt -0.3174007 -0.2743006
vt 0.1573998 0.4505008
vt 0.1573998 0.4534
vt 0.3174007 0.4534
vt -0.1573998 0.4505008
vt -0.3174007 0.4505008
vt 0.1573998 0.4493
vt -0.2730998 0.4534
vt -0.2743006 0.4505008
vt -0.2800989 0.4505008
vt -0.2812997 0.4534
vt -0.2800989 0.4562992
vt -0.2743006 0.4562992
vt 0.1573998 0.4575
vt 0.1573998 0.4562992

usemtl dark(Clone)

f 3/2/1 2/2/1 1/1/1
f 2/5/1 3/4/1 4/3/1
f 2/5/1 4/3/1 5/6/1
f 5/6/1 4/3/1 6/7/1
f 5/6/1 6/7/1 7/8/1
f 7/10/1 6/10/1 8/9/1
f 1/13/2 9/12/2 3/11/2
f 9/12/2 1/13/2 10/14/2
f 6/17/3 12/16/3 11/15/3
f 12/16/3 6/17/3 4/18/3
f 2/19/4 10/14/4 1/13/4
f 10/14/4 2/19/4 13/20/4
f 14/23/5 6/22/5 11/21/5
f 6/22/5 14/23/5 8/24/5
f 15/25/6 8/24/6 14/23/6
f 8/24/6 15/25/6 7/26/6
f 2/2/7 16/28/7 13/27/7
f 16/28/7 2/2/7 5/29/7
f 4/18/8 9/30/8 12/16/8
f 9/30/8 4/18/8 3/31/8
f 13/27/9 9/27/9 10/32/9
f 9/35/9 13/34/9 16/33/9
f 9/35/9 16/33/9 12/36/9
f 12/36/9 16/33/9 11/37/9
f 11/37/9 16/33/9 15/38/9
f 11/40/9 15/40/9 14/39/9
f 5/29/10 15/40/10 16/28/10
f 15/40/10 5/29/10 7/10/10

